<svg id="svg" version="1.1" xmlns="http://www.w3.org/2000/svg" xmlns:xlink="http://www.w3.org/1999/xlink" width="400" height="460.8547008547008" viewBox="0, 0, 400,460.8547008547008"><g id="svgg"><path id="path0" d="M198.700 0.262 C 198.315 0.370,198.000 0.606,198.000 0.786 C 198.000 0.966,197.550 1.226,197.000 1.364 C 196.450 1.502,196.000 1.792,196.000 2.008 C 196.000 2.223,195.640 2.400,195.200 2.400 C 194.760 2.400,194.400 2.560,194.400 2.757 C 194.400 2.953,193.991 3.216,193.492 3.341 C 192.993 3.466,192.190 3.936,191.709 4.385 C 191.227 4.833,190.556 5.200,190.217 5.200 C 189.878 5.200,189.600 5.360,189.600 5.557 C 189.600 5.753,189.150 6.026,188.600 6.164 C 188.050 6.302,187.600 6.592,187.600 6.808 C 187.600 7.023,187.330 7.200,187.000 7.200 C 186.670 7.200,186.399 7.335,186.399 7.500 C 186.398 7.665,185.588 8.133,184.599 8.540 C 183.609 8.946,182.800 9.441,182.800 9.640 C 182.800 9.838,182.530 10.000,182.200 10.000 C 181.870 10.000,181.600 10.166,181.600 10.368 C 181.600 10.571,181.084 10.850,180.454 10.988 C 179.824 11.127,178.939 11.584,178.488 12.004 C 178.037 12.424,177.203 12.884,176.634 13.027 C 176.065 13.170,175.600 13.417,175.600 13.577 C 175.600 13.736,174.568 14.392,173.306 15.033 C 172.044 15.675,170.670 16.506,170.252 16.880 C 169.834 17.254,168.976 17.673,168.346 17.812 C 167.716 17.950,167.200 18.229,167.200 18.432 C 167.200 18.634,166.930 18.800,166.600 18.800 C 166.270 18.800,166.000 18.953,166.000 19.140 C 166.000 19.327,165.190 19.813,164.200 20.222 C 163.210 20.630,162.400 21.107,162.400 21.282 C 162.400 21.457,162.130 21.600,161.800 21.600 C 161.470 21.600,161.200 21.753,161.200 21.940 C 161.200 22.127,160.390 22.613,159.400 23.022 C 158.410 23.430,157.600 23.888,157.600 24.039 C 157.600 24.190,157.150 24.426,156.600 24.564 C 156.050 24.702,155.600 24.992,155.600 25.208 C 155.600 25.423,155.330 25.600,155.000 25.600 C 154.670 25.600,154.400 25.780,154.400 26.000 C 154.400 26.220,154.040 26.400,153.600 26.400 C 153.160 26.400,152.800 26.577,152.800 26.792 C 152.800 27.008,152.350 27.298,151.800 27.436 C 151.250 27.574,150.800 27.847,150.800 28.043 C 150.800 28.240,150.530 28.400,150.200 28.400 C 149.870 28.400,149.600 28.580,149.600 28.800 C 149.600 29.020,149.262 29.200,148.849 29.200 C 148.436 29.200,147.874 29.470,147.600 29.800 C 147.326 30.130,146.854 30.400,146.551 30.400 C 146.248 30.400,146.000 30.538,146.000 30.706 C 146.000 30.874,145.325 31.325,144.500 31.707 C 143.009 32.399,141.583 33.217,141.200 33.600 C 140.997 33.802,139.733 34.503,136.333 36.295 C 135.306 36.837,134.130 37.592,133.719 37.975 C 133.309 38.357,132.526 38.782,131.979 38.919 C 131.432 39.057,130.614 39.514,130.161 39.936 C 129.709 40.357,128.902 40.838,128.369 41.004 C 127.436 41.294,125.213 42.678,124.800 43.227 C 124.690 43.373,124.150 43.632,123.600 43.803 C 123.050 43.973,121.973 44.538,121.207 45.056 C 120.441 45.575,119.601 46.000,119.340 46.000 C 119.080 46.000,118.807 46.135,118.733 46.300 C 118.565 46.679,116.541 47.914,115.100 48.516 C 114.495 48.769,114.000 49.116,114.000 49.288 C 114.000 49.459,113.752 49.600,113.449 49.600 C 113.146 49.600,112.674 49.870,112.400 50.200 C 112.126 50.530,111.564 50.800,111.151 50.800 C 110.738 50.800,110.400 50.980,110.400 51.200 C 110.400 51.420,110.130 51.600,109.800 51.600 C 109.470 51.600,109.200 51.760,109.200 51.957 C 109.200 52.153,108.750 52.426,108.200 52.564 C 107.650 52.702,107.200 52.992,107.200 53.208 C 107.200 53.423,106.840 53.600,106.400 53.600 C 105.960 53.600,105.600 53.780,105.600 54.000 C 105.600 54.220,105.330 54.400,105.000 54.400 C 104.670 54.400,104.400 54.560,104.400 54.757 C 104.400 54.953,103.950 55.226,103.400 55.364 C 102.850 55.502,102.400 55.792,102.400 56.008 C 102.400 56.223,102.040 56.400,101.600 56.400 C 101.160 56.400,100.800 56.560,100.800 56.757 C 100.800 56.953,100.391 57.216,99.892 57.341 C 99.393 57.466,98.590 57.936,98.109 58.385 C 97.627 58.833,96.956 59.200,96.617 59.200 C 96.278 59.200,96.000 59.360,96.000 59.557 C 96.000 59.753,95.550 60.026,95.000 60.164 C 94.450 60.302,94.000 60.592,94.000 60.808 C 94.000 61.023,93.730 61.200,93.400 61.200 C 93.070 61.200,92.800 61.380,92.800 61.600 C 92.800 61.820,92.545 62.000,92.232 62.000 C 91.519 62.000,89.206 63.298,89.203 63.700 C 89.201 63.865,88.930 64.000,88.600 64.000 C 88.270 64.000,88.000 64.180,88.000 64.400 C 88.000 64.620,87.724 64.800,87.386 64.800 C 86.789 64.800,84.807 65.900,84.396 66.459 C 84.284 66.612,83.712 66.857,83.125 67.004 C 82.539 67.151,81.748 67.616,81.367 68.036 C 80.987 68.456,80.434 68.800,80.138 68.800 C 79.842 68.800,79.600 68.960,79.600 69.157 C 79.600 69.353,79.135 69.630,78.566 69.773 C 77.997 69.916,77.163 70.376,76.712 70.796 C 76.261 71.216,75.376 71.673,74.746 71.812 C 74.116 71.950,73.600 72.229,73.600 72.432 C 73.600 72.634,73.330 72.800,73.000 72.800 C 72.670 72.800,72.400 72.953,72.400 73.140 C 72.400 73.327,71.590 73.813,70.600 74.222 C 69.610 74.630,68.800 75.107,68.800 75.282 C 68.800 75.457,68.530 75.600,68.200 75.600 C 67.870 75.600,67.600 75.753,67.600 75.940 C 67.600 76.127,66.790 76.613,65.800 77.022 C 64.810 77.430,64.000 77.888,64.000 78.039 C 64.000 78.190,63.550 78.426,63.000 78.564 C 62.450 78.702,62.000 78.992,62.000 79.208 C 62.000 79.423,61.640 79.600,61.200 79.600 C 60.760 79.600,60.400 79.780,60.400 80.000 C 60.400 80.220,60.130 80.400,59.800 80.400 C 59.470 80.400,59.200 80.577,59.200 80.792 C 59.200 81.008,58.750 81.298,58.200 81.436 C 57.650 81.574,57.200 81.847,57.200 82.043 C 57.200 82.240,56.840 82.400,56.400 82.400 C 55.960 82.400,55.600 82.560,55.600 82.757 C 55.600 82.953,55.150 83.226,54.600 83.364 C 54.050 83.502,53.600 83.792,53.600 84.008 C 53.600 84.223,53.330 84.400,53.000 84.400 C 52.670 84.400,52.400 84.543,52.400 84.718 C 52.400 84.893,51.590 85.370,50.600 85.778 C 49.610 86.187,48.800 86.673,48.800 86.860 C 48.800 87.047,48.545 87.200,48.233 87.200 C 47.922 87.200,47.607 87.335,47.533 87.500 C 47.460 87.665,46.680 88.158,45.800 88.596 C 44.920 89.034,44.110 89.484,44.000 89.596 C 43.820 89.779,42.468 90.553,40.200 91.771 C 39.760 92.007,39.310 92.290,39.200 92.400 C 39.090 92.510,38.325 92.943,37.500 93.363 C 36.675 93.783,36.000 94.278,36.000 94.463 C 36.000 94.648,35.726 94.800,35.392 94.800 C 34.712 94.800,31.474 96.731,31.267 97.260 C 31.193 97.447,30.830 97.600,30.460 97.600 C 30.089 97.600,29.159 98.023,28.393 98.540 C 27.627 99.056,26.280 99.812,25.400 100.219 C 24.520 100.626,23.519 101.271,23.176 101.653 C 22.833 102.034,22.068 102.468,21.476 102.617 C 20.884 102.765,20.400 103.007,20.400 103.154 C 20.400 103.301,19.592 103.776,18.604 104.210 C 17.616 104.645,16.806 105.135,16.804 105.300 C 16.802 105.465,16.530 105.600,16.200 105.600 C 15.870 105.600,15.600 105.740,15.600 105.910 C 15.600 106.081,14.792 106.576,13.804 107.010 C 12.816 107.445,12.006 107.935,12.004 108.100 C 12.002 108.265,11.745 108.400,11.433 108.400 C 11.122 108.400,10.807 108.535,10.733 108.700 C 10.660 108.865,9.880 109.358,9.000 109.796 C 8.120 110.234,7.310 110.684,7.200 110.796 C 6.984 111.016,4.759 112.253,3.303 112.963 C 2.810 113.203,2.405 113.535,2.403 113.700 C 2.401 113.865,2.143 114.000,1.829 114.000 C -0.118 114.000,0.000 106.462,-0.000 230.866 C -0.000 346.138,0.002 346.476,0.800 346.684 C 1.240 346.799,1.600 347.052,1.600 347.247 C 1.600 347.441,1.960 347.600,2.400 347.600 C 2.840 347.600,3.200 347.780,3.200 348.000 C 3.200 348.220,3.470 348.400,3.800 348.400 C 4.130 348.400,4.400 348.577,4.400 348.792 C 4.400 349.008,4.850 349.298,5.400 349.436 C 5.950 349.574,6.400 349.847,6.400 350.043 C 6.400 350.240,6.760 350.400,7.200 350.400 C 7.640 350.400,8.000 350.577,8.000 350.792 C 8.000 351.008,8.450 351.298,9.000 351.436 C 9.550 351.574,10.000 351.847,10.000 352.043 C 10.000 352.240,10.270 352.400,10.600 352.400 C 10.930 352.400,11.200 352.580,11.200 352.800 C 11.200 353.020,11.560 353.200,12.000 353.200 C 12.440 353.200,12.800 353.377,12.800 353.592 C 12.800 353.808,13.250 354.098,13.800 354.236 C 14.350 354.374,14.800 354.647,14.800 354.843 C 14.800 355.040,15.070 355.200,15.400 355.200 C 15.730 355.200,16.000 355.380,16.000 355.600 C 16.000 355.820,16.347 356.000,16.771 356.000 C 17.196 356.000,17.813 356.270,18.143 356.600 C 18.473 356.930,18.936 357.200,19.171 357.200 C 19.407 357.200,19.600 357.372,19.600 357.582 C 19.600 357.792,20.218 358.080,20.972 358.221 C 21.727 358.363,22.431 358.704,22.536 358.979 C 22.642 359.254,23.689 359.976,24.864 360.584 C 26.039 361.192,27.270 361.918,27.600 362.197 C 27.930 362.477,28.650 362.841,29.200 363.007 C 29.750 363.172,30.290 363.427,30.400 363.573 C 30.813 364.122,33.036 365.506,33.969 365.796 C 34.502 365.962,35.312 366.448,35.769 366.876 C 36.226 367.305,37.095 367.755,37.700 367.877 C 38.305 368.000,38.800 368.257,38.800 368.450 C 38.800 368.643,39.070 368.800,39.400 368.800 C 39.730 368.800,40.001 368.935,40.003 369.100 C 40.005 369.445,42.274 370.800,42.849 370.800 C 43.061 370.800,43.627 371.167,44.109 371.615 C 44.590 372.064,45.393 372.534,45.892 372.659 C 46.391 372.784,46.800 373.047,46.800 373.243 C 46.800 373.440,47.160 373.600,47.600 373.600 C 48.040 373.600,48.400 373.777,48.400 373.992 C 48.400 374.208,48.850 374.498,49.400 374.636 C 49.950 374.774,50.400 375.047,50.400 375.243 C 50.400 375.440,50.670 375.600,51.000 375.600 C 51.330 375.600,51.600 375.780,51.600 376.000 C 51.600 376.220,51.960 376.400,52.400 376.400 C 52.840 376.400,53.200 376.577,53.200 376.792 C 53.200 377.008,53.650 377.298,54.200 377.436 C 54.750 377.574,55.200 377.847,55.200 378.043 C 55.200 378.240,55.470 378.400,55.800 378.400 C 56.130 378.400,56.402 378.535,56.404 378.700 C 56.406 378.865,57.216 379.355,58.204 379.790 C 59.192 380.224,60.000 380.719,60.000 380.890 C 60.000 381.060,60.270 381.200,60.600 381.200 C 60.930 381.200,61.200 381.360,61.200 381.557 C 61.200 381.753,61.650 382.026,62.200 382.164 C 62.750 382.302,63.200 382.592,63.200 382.808 C 63.200 383.023,63.560 383.200,64.000 383.200 C 64.440 383.200,64.800 383.341,64.800 383.512 C 64.800 383.684,65.295 384.031,65.900 384.284 C 67.341 384.886,69.365 386.121,69.533 386.500 C 69.607 386.665,69.909 386.800,70.205 386.800 C 70.501 386.800,70.981 387.032,71.271 387.315 C 71.820 387.850,74.501 389.200,75.014 389.200 C 75.174 389.200,75.597 389.520,75.953 389.911 C 76.309 390.301,77.500 391.087,78.600 391.655 C 81.722 393.270,83.382 394.182,83.600 394.404 C 83.710 394.516,84.520 394.966,85.400 395.404 C 86.280 395.842,87.060 396.335,87.133 396.500 C 87.207 396.665,87.522 396.800,87.833 396.800 C 88.145 396.800,88.400 396.940,88.400 397.110 C 88.400 397.281,89.208 397.776,90.196 398.210 C 91.184 398.645,91.994 399.135,91.996 399.300 C 91.998 399.465,92.193 399.600,92.429 399.600 C 92.664 399.600,93.127 399.870,93.457 400.200 C 93.787 400.530,94.404 400.800,94.829 400.800 C 95.253 400.800,95.600 400.980,95.600 401.200 C 95.600 401.420,95.870 401.600,96.200 401.600 C 96.530 401.600,96.800 401.737,96.800 401.905 C 96.800 402.073,97.143 402.388,97.561 402.605 C 97.980 402.822,99.015 403.353,99.861 403.785 C 100.708 404.216,101.638 404.801,101.929 405.085 C 102.219 405.368,102.714 405.600,103.029 405.600 C 103.343 405.600,103.600 405.736,103.600 405.902 C 103.600 406.069,104.185 406.463,104.900 406.778 C 105.615 407.093,106.438 407.587,106.729 407.875 C 107.019 408.164,107.514 408.400,107.829 408.400 C 108.143 408.400,108.400 408.543,108.400 408.718 C 108.400 408.893,109.210 409.370,110.200 409.778 C 111.190 410.187,112.000 410.673,112.000 410.860 C 112.000 411.047,112.270 411.200,112.600 411.200 C 112.930 411.200,113.200 411.343,113.200 411.518 C 113.200 411.693,114.010 412.170,115.000 412.578 C 115.990 412.987,116.800 413.473,116.800 413.660 C 116.800 413.847,117.070 414.000,117.400 414.000 C 117.730 414.000,118.000 414.166,118.000 414.368 C 118.000 414.571,118.540 414.855,119.200 415.000 C 119.860 415.145,120.400 415.429,120.400 415.632 C 120.400 415.834,120.670 416.000,121.000 416.000 C 121.330 416.000,121.600 416.166,121.600 416.368 C 121.600 416.571,122.140 416.855,122.800 417.000 C 123.460 417.145,124.000 417.407,124.000 417.583 C 124.000 417.758,125.027 418.419,126.283 419.051 C 127.539 419.683,128.934 420.527,129.383 420.927 C 129.832 421.328,130.695 421.755,131.300 421.877 C 131.905 422.000,132.400 422.257,132.400 422.450 C 132.400 422.643,132.670 422.800,133.000 422.800 C 133.330 422.800,133.601 422.935,133.603 423.100 C 133.605 423.445,135.874 424.800,136.449 424.800 C 136.661 424.800,137.227 425.167,137.709 425.615 C 138.190 426.064,138.993 426.534,139.492 426.659 C 139.991 426.784,140.400 427.047,140.400 427.243 C 140.400 427.440,140.678 427.600,141.017 427.600 C 141.356 427.600,142.027 427.967,142.509 428.415 C 142.990 428.864,143.793 429.334,144.292 429.459 C 144.791 429.584,145.200 429.847,145.200 430.043 C 145.200 430.240,145.560 430.400,146.000 430.400 C 146.440 430.400,146.800 430.577,146.800 430.792 C 146.800 431.008,147.250 431.298,147.800 431.436 C 148.350 431.574,148.800 431.847,148.800 432.043 C 148.800 432.240,149.070 432.400,149.400 432.400 C 149.730 432.400,150.000 432.566,150.000 432.768 C 150.000 432.971,150.540 433.255,151.200 433.400 C 151.860 433.545,152.400 433.829,152.400 434.032 C 152.400 434.234,152.670 434.400,153.000 434.400 C 153.330 434.400,153.600 434.580,153.600 434.800 C 153.600 435.020,153.855 435.200,154.167 435.200 C 154.478 435.200,154.793 435.335,154.867 435.500 C 154.940 435.665,155.720 436.158,156.600 436.596 C 157.480 437.034,158.290 437.484,158.400 437.596 C 158.616 437.816,160.841 439.053,162.297 439.763 C 162.790 440.003,163.195 440.335,163.197 440.500 C 163.199 440.665,163.457 440.800,163.771 440.800 C 164.086 440.800,164.581 441.032,164.871 441.315 C 165.420 441.850,168.101 443.200,168.614 443.200 C 168.774 443.200,169.197 443.524,169.553 443.920 C 169.909 444.317,170.920 444.974,171.800 445.381 C 172.680 445.788,174.027 446.544,174.793 447.060 C 175.559 447.577,176.504 448.000,176.893 448.000 C 177.282 448.000,177.600 448.135,177.601 448.300 C 177.602 448.691,180.941 450.800,181.559 450.800 C 181.820 450.800,182.427 451.167,182.909 451.615 C 183.390 452.064,184.193 452.534,184.692 452.659 C 185.191 452.784,185.600 453.047,185.600 453.243 C 185.600 453.440,185.960 453.600,186.400 453.600 C 186.840 453.600,187.200 453.777,187.200 453.992 C 187.200 454.208,187.650 454.498,188.200 454.636 C 188.750 454.774,189.200 455.047,189.200 455.243 C 189.200 455.440,189.470 455.600,189.800 455.600 C 190.130 455.600,190.400 455.780,190.400 456.000 C 190.400 456.220,190.648 456.400,190.951 456.400 C 191.254 456.400,191.726 456.670,192.000 457.000 C 192.274 457.330,192.836 457.600,193.249 457.600 C 193.662 457.600,194.000 457.780,194.000 458.000 C 194.000 458.220,194.270 458.400,194.600 458.400 C 194.930 458.400,195.200 458.568,195.200 458.773 C 195.200 458.978,195.605 459.272,196.100 459.427 C 196.595 459.581,197.127 459.906,197.281 460.147 C 197.756 460.889,202.165 460.692,202.964 459.893 C 203.345 459.512,203.914 459.200,204.229 459.200 C 204.543 459.200,204.800 459.020,204.800 458.800 C 204.800 458.580,205.070 458.400,205.400 458.400 C 205.730 458.400,206.000 458.220,206.000 458.000 C 206.000 457.780,206.338 457.600,206.751 457.600 C 207.164 457.600,207.726 457.330,208.000 457.000 C 208.274 456.670,208.746 456.400,209.049 456.400 C 209.352 456.400,209.600 456.220,209.600 456.000 C 209.600 455.780,209.870 455.600,210.200 455.600 C 210.530 455.600,210.800 455.420,210.800 455.200 C 210.800 454.980,211.166 454.800,211.613 454.800 C 212.059 454.800,212.529 454.530,212.655 454.200 C 212.782 453.870,213.226 453.600,213.643 453.600 C 214.059 453.600,214.400 453.440,214.400 453.243 C 214.400 453.047,214.809 452.784,215.308 452.659 C 215.807 452.534,216.610 452.064,217.091 451.615 C 217.573 451.167,218.180 450.800,218.441 450.800 C 219.059 450.800,222.398 448.691,222.399 448.300 C 222.400 448.135,222.718 448.000,223.107 448.000 C 223.496 448.000,224.441 447.577,225.207 447.060 C 225.973 446.544,227.320 445.788,228.200 445.381 C 229.080 444.974,230.070 444.342,230.400 443.978 C 230.730 443.613,231.450 443.173,232.000 443.001 C 232.550 442.828,233.627 442.262,234.393 441.744 C 235.159 441.225,236.014 440.800,236.293 440.800 C 236.572 440.800,236.801 440.665,236.803 440.500 C 236.805 440.335,237.210 440.003,237.703 439.763 C 239.159 439.053,241.384 437.816,241.600 437.596 C 241.710 437.484,242.520 437.034,243.400 436.596 C 244.280 436.158,245.060 435.665,245.133 435.500 C 245.207 435.335,245.522 435.200,245.833 435.200 C 246.145 435.200,246.400 435.020,246.400 434.800 C 246.400 434.580,246.648 434.400,246.951 434.400 C 247.254 434.400,247.726 434.130,248.000 433.800 C 248.274 433.470,248.836 433.200,249.249 433.200 C 249.662 433.200,250.000 433.020,250.000 432.800 C 250.000 432.580,250.270 432.400,250.600 432.400 C 250.930 432.400,251.200 432.240,251.200 432.043 C 251.200 431.847,251.650 431.574,252.200 431.436 C 252.750 431.298,253.200 431.008,253.200 430.792 C 253.200 430.577,253.560 430.400,254.000 430.400 C 254.440 430.400,254.800 430.240,254.800 430.043 C 254.800 429.847,255.209 429.584,255.708 429.459 C 256.207 429.334,257.010 428.864,257.491 428.415 C 257.973 427.967,258.644 427.600,258.983 427.600 C 259.322 427.600,259.600 427.440,259.600 427.243 C 259.600 427.047,260.050 426.774,260.600 426.636 C 261.150 426.498,261.600 426.208,261.600 425.992 C 261.600 425.777,261.870 425.600,262.200 425.600 C 262.530 425.600,262.800 425.420,262.800 425.200 C 262.800 424.980,263.055 424.800,263.368 424.800 C 264.081 424.800,266.394 423.502,266.397 423.100 C 266.399 422.935,266.670 422.800,267.000 422.800 C 267.330 422.800,267.600 422.643,267.600 422.450 C 267.600 422.257,268.095 422.000,268.700 421.877 C 269.305 421.755,270.168 421.328,270.617 420.927 C 271.066 420.527,272.461 419.683,273.717 419.051 C 274.973 418.419,276.000 417.764,276.000 417.594 C 276.000 417.425,276.465 417.170,277.034 417.027 C 277.603 416.884,278.437 416.424,278.888 416.004 C 279.339 415.584,280.224 415.127,280.854 414.988 C 281.484 414.850,282.000 414.571,282.000 414.368 C 282.000 414.166,282.270 414.000,282.600 414.000 C 282.930 414.000,283.200 413.847,283.200 413.660 C 283.200 413.473,284.010 412.987,285.000 412.578 C 285.990 412.170,286.800 411.693,286.800 411.518 C 286.800 411.343,287.070 411.200,287.400 411.200 C 287.730 411.200,288.000 411.047,288.000 410.860 C 288.000 410.673,288.810 410.187,289.800 409.778 C 290.790 409.370,291.600 408.912,291.600 408.761 C 291.600 408.610,292.050 408.374,292.600 408.236 C 293.150 408.098,293.600 407.808,293.600 407.592 C 293.600 407.377,293.960 407.200,294.400 407.200 C 294.840 407.200,295.200 407.020,295.200 406.800 C 295.200 406.580,295.470 406.400,295.800 406.400 C 296.130 406.400,296.400 406.232,296.400 406.027 C 296.400 405.822,296.805 405.528,297.300 405.373 C 297.795 405.219,298.290 404.972,298.400 404.825 C 298.510 404.678,299.230 404.248,300.000 403.868 C 301.628 403.066,302.916 402.300,303.200 401.964 C 303.310 401.835,304.165 401.395,305.100 400.987 C 306.035 400.580,306.800 400.101,306.800 399.923 C 306.800 399.745,307.070 399.600,307.400 399.600 C 307.730 399.600,308.002 399.465,308.004 399.300 C 308.006 399.135,308.816 398.645,309.804 398.210 C 310.792 397.776,311.600 397.281,311.600 397.110 C 311.600 396.940,311.855 396.800,312.167 396.800 C 312.478 396.800,312.793 396.665,312.867 396.500 C 312.940 396.335,313.720 395.842,314.600 395.404 C 315.480 394.966,316.290 394.516,316.400 394.404 C 316.510 394.292,317.275 393.857,318.100 393.437 C 318.925 393.017,319.600 392.522,319.600 392.337 C 319.600 392.152,319.896 392.000,320.258 392.000 C 321.009 392.000,324.398 389.954,324.399 389.500 C 324.400 389.335,324.687 389.200,325.038 389.200 C 325.732 389.200,327.863 388.101,328.721 387.300 C 329.016 387.025,329.514 386.800,329.829 386.800 C 330.143 386.800,330.400 386.620,330.400 386.400 C 330.400 386.180,330.678 386.000,331.017 386.000 C 331.356 386.000,332.027 385.633,332.509 385.185 C 332.990 384.736,333.793 384.266,334.292 384.141 C 334.791 384.016,335.200 383.753,335.200 383.557 C 335.200 383.360,335.560 383.200,336.000 383.200 C 336.440 383.200,336.800 383.023,336.800 382.808 C 336.800 382.592,337.250 382.302,337.800 382.164 C 338.350 382.026,338.800 381.753,338.800 381.557 C 338.800 381.360,339.070 381.200,339.400 381.200 C 339.730 381.200,340.000 381.060,340.000 380.890 C 340.000 380.719,340.808 380.224,341.796 379.790 C 342.784 379.355,343.594 378.865,343.596 378.700 C 343.598 378.535,343.870 378.400,344.200 378.400 C 344.530 378.400,344.802 378.265,344.804 378.100 C 344.806 377.935,345.616 377.445,346.604 377.010 C 347.592 376.576,348.400 376.081,348.400 375.910 C 348.400 375.740,348.670 375.600,349.000 375.600 C 349.330 375.600,349.600 375.440,349.600 375.243 C 349.600 375.047,350.050 374.774,350.600 374.636 C 351.150 374.498,351.600 374.208,351.600 373.992 C 351.600 373.777,351.960 373.600,352.400 373.600 C 352.840 373.600,353.200 373.440,353.200 373.243 C 353.200 373.047,353.609 372.784,354.108 372.659 C 354.607 372.534,355.378 372.093,355.821 371.681 C 356.264 371.268,357.074 370.818,357.621 370.681 C 358.168 370.543,359.010 370.064,359.491 369.615 C 359.973 369.167,360.554 368.800,360.783 368.800 C 361.012 368.800,361.200 368.643,361.200 368.450 C 361.200 368.258,361.695 368.000,362.300 367.877 C 362.905 367.755,363.768 367.328,364.217 366.927 C 364.666 366.527,366.061 365.683,367.317 365.051 C 368.573 364.419,369.600 363.758,369.600 363.583 C 369.600 363.407,370.128 363.148,370.772 363.006 C 371.417 362.864,372.156 362.495,372.413 362.184 C 372.671 361.873,373.863 361.155,375.062 360.588 C 376.261 360.021,377.335 359.314,377.449 359.018 C 377.562 358.721,378.273 358.363,379.028 358.221 C 379.782 358.080,380.400 357.792,380.400 357.582 C 380.400 357.372,380.593 357.200,380.829 357.200 C 381.064 357.200,381.527 356.930,381.857 356.600 C 382.187 356.270,382.804 356.000,383.229 356.000 C 383.653 356.000,384.000 355.820,384.000 355.600 C 384.000 355.380,384.270 355.200,384.600 355.200 C 384.930 355.200,385.200 355.040,385.200 354.843 C 385.200 354.647,385.650 354.374,386.200 354.236 C 386.750 354.098,387.200 353.808,387.200 353.592 C 387.200 353.377,387.560 353.200,388.000 353.200 C 388.440 353.200,388.800 353.020,388.800 352.800 C 388.800 352.580,389.070 352.400,389.400 352.400 C 389.730 352.400,390.000 352.223,390.000 352.008 C 390.000 351.792,390.450 351.502,391.000 351.364 C 391.550 351.226,392.000 350.953,392.000 350.757 C 392.000 350.560,392.360 350.400,392.800 350.400 C 393.240 350.400,393.600 350.240,393.600 350.043 C 393.600 349.847,394.050 349.574,394.600 349.436 C 395.150 349.298,395.600 349.008,395.600 348.792 C 395.600 348.577,395.870 348.400,396.200 348.400 C 396.530 348.400,396.800 348.220,396.800 348.000 C 396.800 347.780,397.160 347.600,397.600 347.600 C 398.040 347.600,398.400 347.441,398.400 347.247 C 398.400 347.052,398.760 346.799,399.200 346.684 C 399.998 346.476,400.000 346.138,400.000 230.866 C 400.000 106.462,400.118 114.000,398.171 114.000 C 397.857 114.000,397.600 113.864,397.600 113.698 C 397.600 113.531,397.015 113.137,396.300 112.822 C 395.585 112.507,394.762 112.013,394.471 111.725 C 394.181 111.436,393.686 111.200,393.371 111.200 C 393.057 111.200,392.800 111.060,392.800 110.890 C 392.800 110.719,391.992 110.224,391.004 109.790 C 390.016 109.355,389.206 108.865,389.204 108.700 C 389.202 108.535,388.930 108.400,388.600 108.400 C 388.270 108.400,388.000 108.259,388.000 108.088 C 388.000 107.916,387.505 107.569,386.900 107.316 C 385.459 106.714,383.435 105.479,383.267 105.100 C 383.193 104.935,382.920 104.800,382.660 104.800 C 382.399 104.800,381.559 104.375,380.793 103.856 C 380.027 103.338,378.964 102.776,378.431 102.608 C 377.898 102.440,377.108 101.973,376.677 101.571 C 376.245 101.169,375.241 100.534,374.446 100.160 C 373.651 99.785,372.373 99.056,371.607 98.540 C 370.841 98.023,369.911 97.600,369.540 97.600 C 369.170 97.600,368.807 97.447,368.733 97.260 C 368.557 96.810,365.335 94.800,364.791 94.800 C 364.558 94.800,363.973 94.433,363.491 93.985 C 363.010 93.536,362.207 93.066,361.708 92.941 C 361.209 92.816,360.800 92.553,360.800 92.357 C 360.800 92.160,360.440 92.000,360.000 92.000 C 359.560 92.000,359.200 91.849,359.200 91.664 C 359.200 91.480,358.482 90.985,357.605 90.564 C 356.727 90.144,356.007 89.665,356.005 89.500 C 356.002 89.335,355.752 89.200,355.449 89.200 C 355.146 89.200,354.674 88.930,354.400 88.600 C 354.126 88.270,353.564 88.000,353.151 88.000 C 352.738 88.000,352.400 87.820,352.400 87.600 C 352.400 87.380,352.130 87.200,351.800 87.200 C 351.470 87.200,351.200 87.047,351.200 86.860 C 351.200 86.673,350.390 86.187,349.400 85.778 C 348.410 85.370,347.600 84.893,347.600 84.718 C 347.600 84.543,347.330 84.400,347.000 84.400 C 346.670 84.400,346.400 84.223,346.400 84.008 C 346.400 83.792,345.950 83.502,345.400 83.364 C 344.850 83.226,344.400 82.953,344.400 82.757 C 344.400 82.560,344.040 82.400,343.600 82.400 C 343.160 82.400,342.800 82.240,342.800 82.043 C 342.800 81.847,342.350 81.574,341.800 81.436 C 341.250 81.298,340.800 81.008,340.800 80.792 C 340.800 80.577,340.530 80.400,340.200 80.400 C 339.870 80.400,339.600 80.220,339.600 80.000 C 339.600 79.780,339.240 79.600,338.800 79.600 C 338.360 79.600,338.000 79.420,338.000 79.200 C 338.000 78.980,337.743 78.800,337.429 78.800 C 337.114 78.800,336.619 78.574,336.329 78.299 C 336.038 78.023,334.765 77.282,333.500 76.651 C 332.235 76.021,331.200 75.383,331.200 75.234 C 331.200 75.086,330.390 74.630,329.400 74.222 C 328.410 73.813,327.600 73.327,327.600 73.140 C 327.600 72.953,327.330 72.800,327.000 72.800 C 326.670 72.800,326.400 72.634,326.400 72.432 C 326.400 72.229,325.815 71.935,325.100 71.778 C 324.385 71.621,323.579 71.177,323.309 70.792 C 323.039 70.407,322.321 69.967,321.713 69.814 C 321.105 69.661,320.516 69.416,320.404 69.268 C 320.125 68.901,318.874 68.132,317.200 67.298 C 316.430 66.914,315.710 66.506,315.600 66.391 C 315.041 65.806,313.153 64.800,312.614 64.800 C 312.276 64.800,312.000 64.620,312.000 64.400 C 312.000 64.180,311.730 64.000,311.400 64.000 C 311.070 64.000,310.799 63.865,310.797 63.700 C 310.794 63.298,308.481 62.000,307.768 62.000 C 307.455 62.000,307.200 61.820,307.200 61.600 C 307.200 61.380,306.930 61.200,306.600 61.200 C 306.270 61.200,306.000 61.023,306.000 60.808 C 306.000 60.592,305.550 60.302,305.000 60.164 C 304.450 60.026,304.000 59.753,304.000 59.557 C 304.000 59.360,303.640 59.200,303.200 59.200 C 302.760 59.200,302.400 59.020,302.400 58.800 C 302.400 58.580,302.130 58.400,301.800 58.400 C 301.470 58.400,301.200 58.223,301.200 58.008 C 301.200 57.792,300.750 57.502,300.200 57.364 C 299.650 57.226,299.200 56.953,299.200 56.757 C 299.200 56.560,298.840 56.400,298.400 56.400 C 297.960 56.400,297.600 56.223,297.600 56.008 C 297.600 55.792,297.150 55.502,296.600 55.364 C 296.050 55.226,295.600 54.953,295.600 54.757 C 295.600 54.560,295.330 54.400,295.000 54.400 C 294.670 54.400,294.400 54.220,294.400 54.000 C 294.400 53.780,294.040 53.600,293.600 53.600 C 293.160 53.600,292.800 53.423,292.800 53.208 C 292.800 52.992,292.350 52.702,291.800 52.564 C 291.250 52.426,290.800 52.153,290.800 51.957 C 290.800 51.760,290.545 51.600,290.233 51.600 C 289.922 51.600,289.607 51.465,289.533 51.300 C 289.460 51.135,288.680 50.642,287.800 50.204 C 286.920 49.766,286.110 49.316,286.000 49.204 C 285.784 48.984,283.559 47.747,282.103 47.037 C 281.610 46.797,281.205 46.465,281.203 46.300 C 281.201 46.135,280.972 46.000,280.693 46.000 C 280.414 46.000,279.559 45.575,278.793 45.056 C 278.027 44.538,276.950 43.973,276.400 43.803 C 275.850 43.632,275.310 43.373,275.200 43.227 C 274.787 42.678,272.564 41.294,271.631 41.004 C 271.098 40.838,270.291 40.357,269.839 39.936 C 269.386 39.514,268.607 39.066,268.108 38.941 C 267.609 38.816,267.200 38.553,267.200 38.357 C 267.200 38.160,266.840 38.000,266.400 38.000 C 265.960 38.000,265.600 37.861,265.600 37.691 C 265.600 37.521,264.925 37.028,264.100 36.595 C 263.275 36.162,262.510 35.714,262.400 35.600 C 262.290 35.486,261.480 35.034,260.600 34.596 C 259.720 34.158,258.910 33.710,258.800 33.600 C 258.424 33.224,255.402 31.549,254.700 31.328 C 254.315 31.206,254.000 30.948,254.000 30.753 C 254.000 30.559,253.752 30.400,253.449 30.400 C 253.146 30.400,252.674 30.130,252.400 29.800 C 252.126 29.470,251.564 29.200,251.151 29.200 C 250.738 29.200,250.400 29.020,250.400 28.800 C 250.400 28.580,250.130 28.400,249.800 28.400 C 249.470 28.400,249.200 28.220,249.200 28.000 C 249.200 27.780,248.943 27.600,248.629 27.600 C 248.314 27.600,247.819 27.364,247.529 27.075 C 247.238 26.787,246.415 26.293,245.700 25.978 C 244.985 25.663,244.400 25.269,244.400 25.102 C 244.400 24.936,244.143 24.800,243.829 24.800 C 243.514 24.800,243.019 24.563,242.729 24.272 C 242.438 23.982,241.435 23.408,240.500 22.995 C 239.565 22.583,238.800 22.101,238.800 21.923 C 238.800 21.745,238.530 21.600,238.200 21.600 C 237.870 21.600,237.600 21.457,237.600 21.282 C 237.600 21.107,236.790 20.630,235.800 20.222 C 234.810 19.813,234.000 19.327,234.000 19.140 C 234.000 18.953,233.730 18.800,233.400 18.800 C 233.070 18.800,232.800 18.634,232.800 18.432 C 232.800 18.229,232.215 17.935,231.500 17.778 C 230.786 17.621,229.931 17.202,229.600 16.846 C 229.270 16.491,228.100 15.731,227.000 15.157 C 223.534 13.350,222.252 12.614,221.714 12.124 C 221.427 11.863,220.563 11.422,219.796 11.144 C 219.028 10.866,218.400 10.495,218.400 10.320 C 218.400 10.144,218.130 10.000,217.800 10.000 C 217.470 10.000,217.200 9.838,217.200 9.640 C 217.200 9.441,216.391 8.946,215.401 8.540 C 214.412 8.133,213.602 7.665,213.601 7.500 C 213.601 7.335,213.330 7.200,213.000 7.200 C 212.670 7.200,212.400 7.023,212.400 6.808 C 212.400 6.592,211.950 6.302,211.400 6.164 C 210.850 6.026,210.400 5.753,210.400 5.557 C 210.400 5.360,210.040 5.200,209.600 5.200 C 209.160 5.200,208.800 5.020,208.800 4.800 C 208.800 4.580,208.530 4.400,208.200 4.400 C 207.870 4.400,207.600 4.223,207.600 4.008 C 207.600 3.792,207.150 3.502,206.600 3.364 C 206.050 3.226,205.600 2.953,205.600 2.757 C 205.600 2.560,205.240 2.400,204.800 2.400 C 204.360 2.400,204.000 2.232,204.000 2.027 C 204.000 1.822,203.595 1.528,203.100 1.373 C 202.605 1.219,202.101 0.939,201.980 0.752 C 201.699 0.317,199.612 0.005,198.700 0.262 M200.800 7.600 C 200.800 7.820,201.028 8.000,201.307 8.000 C 201.586 8.000,202.441 8.425,203.207 8.944 C 203.973 9.462,205.050 10.027,205.600 10.197 C 206.150 10.368,206.690 10.627,206.800 10.773 C 207.213 11.322,209.436 12.706,210.369 12.996 C 210.902 13.162,211.709 13.643,212.161 14.064 C 212.614 14.486,213.438 14.942,213.992 15.077 C 214.546 15.212,215.090 15.449,215.200 15.602 C 215.539 16.074,218.759 18.000,219.209 18.000 C 219.442 18.000,220.027 18.367,220.509 18.815 C 220.990 19.264,221.793 19.734,222.292 19.859 C 222.791 19.984,223.200 20.247,223.200 20.443 C 223.200 20.640,223.478 20.800,223.817 20.800 C 224.156 20.800,224.827 21.167,225.309 21.615 C 225.790 22.064,226.593 22.534,227.092 22.659 C 227.591 22.784,228.000 23.047,228.000 23.243 C 228.000 23.440,228.360 23.600,228.800 23.600 C 229.240 23.600,229.600 23.777,229.600 23.992 C 229.600 24.208,230.050 24.498,230.600 24.636 C 231.150 24.774,231.600 25.047,231.600 25.243 C 231.600 25.440,231.870 25.600,232.200 25.600 C 232.530 25.600,232.800 25.780,232.800 26.000 C 232.800 26.220,233.048 26.400,233.351 26.400 C 233.654 26.400,234.126 26.670,234.400 27.000 C 234.674 27.330,235.236 27.600,235.649 27.600 C 236.062 27.600,236.400 27.780,236.400 28.000 C 236.400 28.220,236.670 28.400,237.000 28.400 C 237.330 28.400,237.600 28.560,237.600 28.757 C 237.600 28.953,238.050 29.226,238.600 29.364 C 239.150 29.502,239.600 29.792,239.600 30.008 C 239.600 30.223,239.960 30.400,240.400 30.400 C 240.840 30.400,241.200 30.560,241.200 30.757 C 241.200 30.953,241.650 31.226,242.200 31.364 C 242.750 31.502,243.200 31.792,243.200 32.008 C 243.200 32.223,243.470 32.400,243.800 32.400 C 244.130 32.400,244.400 32.580,244.400 32.800 C 244.400 33.020,244.760 33.200,245.200 33.200 C 245.640 33.200,246.000 33.360,246.000 33.557 C 246.000 33.753,246.450 34.026,247.000 34.164 C 247.550 34.302,248.000 34.592,248.000 34.808 C 248.000 35.023,248.270 35.200,248.600 35.200 C 248.930 35.200,249.200 35.358,249.200 35.550 C 249.200 35.742,249.695 36.000,250.300 36.123 C 250.905 36.245,251.760 36.672,252.200 37.073 C 252.640 37.473,254.035 38.316,255.300 38.948 C 256.565 39.579,257.600 40.240,257.600 40.416 C 257.600 40.592,258.140 40.855,258.800 41.000 C 259.460 41.145,260.000 41.399,260.000 41.565 C 260.000 41.731,261.032 42.392,262.294 43.033 C 263.556 43.675,264.930 44.506,265.348 44.880 C 265.766 45.254,266.624 45.673,267.254 45.812 C 267.884 45.950,268.400 46.229,268.400 46.432 C 268.400 46.634,268.593 46.800,268.829 46.800 C 269.064 46.800,269.527 47.070,269.857 47.400 C 270.187 47.730,270.804 48.000,271.229 48.000 C 271.653 48.000,272.000 48.180,272.000 48.400 C 272.000 48.620,272.188 48.800,272.417 48.800 C 272.646 48.800,273.231 49.172,273.717 49.627 C 274.203 50.083,275.095 50.555,275.700 50.677 C 276.305 50.800,276.800 51.058,276.800 51.250 C 276.800 51.442,277.070 51.600,277.400 51.600 C 277.730 51.600,278.000 51.777,278.000 51.992 C 278.000 52.208,278.450 52.498,279.000 52.636 C 279.550 52.774,280.000 53.003,280.000 53.146 C 280.000 53.288,280.585 53.663,281.300 53.978 C 282.015 54.293,282.838 54.787,283.129 55.075 C 283.419 55.364,283.914 55.600,284.229 55.600 C 284.543 55.600,284.800 55.743,284.800 55.918 C 284.800 56.093,285.610 56.570,286.600 56.978 C 287.590 57.387,288.400 57.873,288.400 58.060 C 288.400 58.247,288.670 58.400,289.000 58.400 C 289.330 58.400,289.600 58.540,289.600 58.710 C 289.600 58.881,290.408 59.376,291.396 59.810 C 292.384 60.245,293.194 60.735,293.196 60.900 C 293.198 61.065,293.455 61.200,293.767 61.200 C 294.078 61.200,294.393 61.335,294.467 61.500 C 294.540 61.665,295.320 62.158,296.200 62.596 C 297.080 63.034,297.890 63.484,298.000 63.596 C 298.110 63.708,298.560 63.993,299.000 64.229 C 301.478 65.560,302.622 66.227,302.800 66.446 C 302.910 66.581,303.436 66.828,303.969 66.995 C 304.502 67.162,305.309 67.643,305.761 68.064 C 306.214 68.486,307.038 68.942,307.592 69.077 C 308.146 69.212,308.690 69.444,308.800 69.592 C 309.222 70.159,312.211 72.000,312.710 72.000 C 312.998 72.000,313.627 72.367,314.109 72.815 C 314.590 73.264,315.393 73.734,315.892 73.859 C 316.391 73.984,316.800 74.247,316.800 74.443 C 316.800 74.640,317.078 74.800,317.417 74.800 C 317.756 74.800,318.427 75.167,318.909 75.615 C 319.390 76.064,320.193 76.534,320.692 76.659 C 321.191 76.784,321.600 77.047,321.600 77.243 C 321.600 77.440,321.960 77.600,322.400 77.600 C 322.840 77.600,323.200 77.777,323.200 77.992 C 323.200 78.208,323.650 78.498,324.200 78.636 C 324.750 78.774,325.200 79.047,325.200 79.243 C 325.200 79.440,325.470 79.600,325.800 79.600 C 326.130 79.600,326.400 79.740,326.400 79.910 C 326.400 80.081,327.208 80.576,328.196 81.010 C 329.184 81.445,329.994 81.935,329.996 82.100 C 329.998 82.265,330.270 82.400,330.600 82.400 C 330.930 82.400,331.202 82.535,331.204 82.700 C 331.206 82.865,332.016 83.355,333.004 83.790 C 333.992 84.224,334.800 84.719,334.800 84.890 C 334.800 85.060,335.070 85.200,335.400 85.200 C 335.730 85.200,336.000 85.353,336.000 85.540 C 336.000 85.727,336.810 86.213,337.800 86.622 C 338.790 87.030,339.600 87.507,339.600 87.682 C 339.600 87.857,339.857 88.000,340.171 88.000 C 340.486 88.000,340.981 88.232,341.271 88.516 C 341.562 88.800,342.632 89.421,343.650 89.895 C 344.667 90.369,345.747 90.992,346.050 91.280 C 346.352 91.567,347.635 92.318,348.900 92.949 C 350.165 93.579,351.200 94.240,351.200 94.416 C 351.200 94.592,351.785 94.865,352.500 95.022 C 353.214 95.179,354.069 95.598,354.400 95.954 C 355.206 96.822,357.372 98.000,358.162 98.000 C 358.513 98.000,358.800 98.152,358.800 98.337 C 358.800 98.522,359.475 99.017,360.300 99.437 C 361.125 99.857,361.890 100.290,362.000 100.400 C 362.345 100.745,363.746 101.578,365.200 102.302 C 365.970 102.686,366.690 103.094,366.800 103.209 C 367.359 103.794,369.247 104.800,369.786 104.800 C 370.124 104.800,370.400 104.980,370.400 105.200 C 370.400 105.420,370.670 105.600,371.000 105.600 C 371.330 105.600,371.600 105.777,371.600 105.992 C 371.600 106.208,372.050 106.498,372.600 106.636 C 373.150 106.774,373.600 107.047,373.600 107.243 C 373.600 107.440,373.960 107.600,374.400 107.600 C 374.840 107.600,375.200 107.780,375.200 108.000 C 375.200 108.220,375.470 108.400,375.800 108.400 C 376.130 108.400,376.400 108.577,376.400 108.792 C 376.400 109.008,376.850 109.298,377.400 109.436 C 377.950 109.574,378.400 109.847,378.400 110.043 C 378.400 110.240,378.760 110.400,379.200 110.400 C 379.640 110.400,380.000 110.560,380.000 110.757 C 380.000 110.953,380.450 111.226,381.000 111.364 C 381.550 111.502,382.000 111.792,382.000 112.008 C 382.000 112.223,382.270 112.400,382.600 112.400 C 382.930 112.400,383.200 112.580,383.200 112.800 C 383.200 113.020,383.560 113.200,384.000 113.200 C 384.440 113.200,384.800 113.377,384.800 113.592 C 384.800 113.808,385.250 114.098,385.800 114.236 C 386.350 114.374,386.800 114.647,386.800 114.843 C 386.800 115.040,387.070 115.200,387.400 115.200 C 387.730 115.200,388.000 115.380,388.000 115.600 C 388.000 115.820,388.347 116.000,388.771 116.000 C 389.196 116.000,389.813 116.270,390.143 116.600 C 390.473 116.930,390.936 117.200,391.171 117.200 C 391.407 117.200,391.600 117.336,391.600 117.502 C 391.600 117.669,392.140 118.044,392.800 118.336 L 394.000 118.867 394.000 230.604 L 394.000 342.341 392.900 342.910 C 390.781 344.006,388.999 345.002,388.800 345.200 C 388.424 345.576,385.401 347.251,384.700 347.472 C 384.315 347.594,384.000 347.852,384.000 348.047 C 384.000 348.241,383.730 348.400,383.400 348.400 C 383.070 348.400,382.800 348.566,382.800 348.768 C 382.800 348.971,382.260 349.255,381.600 349.400 C 380.940 349.545,380.400 349.829,380.400 350.032 C 380.400 350.234,380.130 350.400,379.800 350.400 C 379.470 350.400,379.200 350.560,379.200 350.757 C 379.200 350.953,378.750 351.226,378.200 351.364 C 377.650 351.502,377.200 351.792,377.200 352.008 C 377.200 352.223,376.840 352.400,376.400 352.400 C 375.960 352.400,375.600 352.580,375.600 352.800 C 375.600 353.020,375.330 353.200,375.000 353.200 C 374.670 353.200,374.400 353.360,374.400 353.557 C 374.400 353.753,373.950 354.026,373.400 354.164 C 372.850 354.302,372.400 354.592,372.400 354.808 C 372.400 355.023,372.040 355.200,371.600 355.200 C 371.160 355.200,370.800 355.360,370.800 355.557 C 370.800 355.753,370.391 356.016,369.892 356.141 C 369.393 356.266,368.590 356.736,368.109 357.185 C 367.627 357.633,367.042 358.000,366.809 358.000 C 366.333 358.000,363.113 359.948,362.796 360.428 C 362.684 360.598,362.117 360.856,361.536 361.002 C 360.954 361.148,360.144 361.567,359.734 361.933 C 359.324 362.300,357.956 363.125,356.694 363.767 C 355.432 364.408,354.400 365.064,354.400 365.223 C 354.400 365.383,353.907 365.637,353.304 365.788 C 352.701 365.940,352.116 366.184,352.004 366.332 C 351.716 366.710,348.741 368.407,347.900 368.672 C 347.515 368.794,347.200 369.052,347.200 369.247 C 347.200 369.441,346.930 369.600,346.600 369.600 C 346.270 369.600,346.000 369.766,346.000 369.968 C 346.000 370.171,345.460 370.455,344.800 370.600 C 344.140 370.745,343.600 371.029,343.600 371.232 C 343.600 371.434,343.330 371.600,343.000 371.600 C 342.670 371.600,342.400 371.753,342.400 371.940 C 342.400 372.127,341.590 372.613,340.600 373.022 C 339.610 373.430,338.800 373.907,338.800 374.082 C 338.800 374.257,338.530 374.400,338.200 374.400 C 337.870 374.400,337.600 374.577,337.600 374.792 C 337.600 375.008,337.150 375.298,336.600 375.436 C 336.050 375.574,335.600 375.847,335.600 376.043 C 335.600 376.240,335.240 376.400,334.800 376.400 C 334.360 376.400,334.000 376.560,334.000 376.757 C 334.000 376.953,333.550 377.226,333.000 377.364 C 332.450 377.502,332.000 377.792,332.000 378.008 C 332.000 378.223,331.730 378.400,331.400 378.400 C 331.070 378.400,330.800 378.580,330.800 378.800 C 330.800 379.020,330.545 379.200,330.232 379.200 C 329.519 379.200,327.206 380.498,327.203 380.900 C 327.201 381.065,326.930 381.200,326.600 381.200 C 326.270 381.200,326.000 381.380,326.000 381.600 C 326.000 381.820,325.662 382.000,325.249 382.000 C 324.836 382.000,324.274 382.270,324.000 382.600 C 323.726 382.930,323.269 383.200,322.984 383.200 C 322.700 383.200,322.407 383.335,322.333 383.500 C 322.260 383.665,321.570 384.114,320.800 384.498 C 319.346 385.222,317.945 386.055,317.600 386.400 C 317.490 386.510,316.725 386.943,315.900 387.363 C 315.075 387.783,314.400 388.278,314.400 388.463 C 314.400 388.648,314.082 388.800,313.693 388.800 C 313.046 388.800,310.072 390.558,309.600 391.219 C 309.490 391.373,308.815 391.626,308.100 391.782 C 307.385 391.937,306.800 392.208,306.800 392.384 C 306.800 392.560,305.765 393.221,304.500 393.851 C 303.235 394.482,301.952 395.233,301.650 395.520 C 301.347 395.808,300.267 396.431,299.250 396.905 C 298.232 397.379,297.162 398.000,296.871 398.284 C 296.581 398.568,296.086 398.800,295.771 398.800 C 295.457 398.800,295.200 398.959,295.200 399.153 C 295.200 399.348,294.885 399.606,294.500 399.728 C 293.519 400.037,290.628 401.738,290.467 402.100 C 290.393 402.265,290.100 402.400,289.816 402.400 C 289.531 402.400,289.074 402.670,288.800 403.000 C 288.526 403.330,287.964 403.600,287.551 403.600 C 287.138 403.600,286.800 403.780,286.800 404.000 C 286.800 404.220,286.530 404.400,286.200 404.400 C 285.870 404.400,285.600 404.560,285.600 404.757 C 285.600 404.953,285.150 405.226,284.600 405.364 C 284.050 405.502,283.600 405.792,283.600 406.008 C 283.600 406.223,283.240 406.400,282.800 406.400 C 282.360 406.400,282.000 406.580,282.000 406.800 C 282.000 407.020,281.730 407.200,281.400 407.200 C 281.070 407.200,280.800 407.360,280.800 407.557 C 280.800 407.753,280.350 408.026,279.800 408.164 C 279.250 408.302,278.800 408.592,278.800 408.808 C 278.800 409.023,278.440 409.200,278.000 409.200 C 277.560 409.200,277.200 409.360,277.200 409.557 C 277.200 409.753,276.791 410.016,276.292 410.141 C 275.793 410.266,274.990 410.736,274.509 411.185 C 274.027 411.633,273.356 412.000,273.017 412.000 C 272.678 412.000,272.400 412.160,272.400 412.357 C 272.400 412.553,271.991 412.816,271.492 412.941 C 270.993 413.066,270.222 413.507,269.779 413.919 C 269.336 414.332,268.526 414.782,267.979 414.919 C 267.432 415.057,266.620 415.491,266.175 415.885 C 265.730 416.278,264.339 417.117,263.083 417.749 C 261.827 418.381,260.800 419.036,260.800 419.206 C 260.800 419.375,260.347 419.627,259.793 419.766 C 259.239 419.905,257.844 420.605,256.693 421.321 C 255.542 422.038,254.105 422.874,253.500 423.180 C 252.895 423.485,252.400 423.870,252.400 424.036 C 252.400 424.201,251.860 424.455,251.200 424.600 C 250.540 424.745,250.000 425.029,250.000 425.232 C 250.000 425.434,249.730 425.600,249.400 425.600 C 249.070 425.600,248.800 425.753,248.800 425.940 C 248.800 426.127,247.990 426.613,247.000 427.022 C 246.010 427.430,245.200 427.907,245.200 428.082 C 245.200 428.257,245.007 428.400,244.771 428.400 C 244.536 428.400,244.073 428.670,243.743 429.000 C 243.413 429.330,242.796 429.600,242.371 429.600 C 241.947 429.600,241.600 429.780,241.600 430.000 C 241.600 430.220,241.330 430.400,241.000 430.400 C 240.670 430.400,240.400 430.560,240.400 430.757 C 240.400 430.953,239.950 431.226,239.400 431.364 C 238.850 431.502,238.400 431.792,238.400 432.008 C 238.400 432.223,238.040 432.400,237.600 432.400 C 237.160 432.400,236.800 432.580,236.800 432.800 C 236.800 433.020,236.530 433.200,236.200 433.200 C 235.870 433.200,235.600 433.360,235.600 433.557 C 235.600 433.753,235.150 434.026,234.600 434.164 C 234.050 434.302,233.600 434.592,233.600 434.808 C 233.600 435.023,233.240 435.200,232.800 435.200 C 232.360 435.200,232.000 435.360,232.000 435.557 C 232.000 435.753,231.550 436.026,231.000 436.164 C 230.450 436.302,230.000 436.592,230.000 436.808 C 230.000 437.023,229.730 437.200,229.400 437.200 C 229.070 437.200,228.799 437.335,228.799 437.500 C 228.798 437.665,227.988 438.133,226.999 438.540 C 226.009 438.946,225.200 439.441,225.200 439.640 C 225.200 439.838,224.930 440.000,224.600 440.000 C 224.270 440.000,224.000 440.144,224.000 440.320 C 224.000 440.495,223.372 440.866,222.604 441.144 C 221.837 441.422,220.973 441.863,220.686 442.124 C 220.172 442.592,218.266 443.703,216.503 444.563 C 216.010 444.803,215.605 445.121,215.603 445.268 C 215.601 445.416,215.060 445.655,214.400 445.800 C 213.740 445.945,213.200 446.200,213.200 446.366 C 213.200 446.533,212.165 447.186,210.900 447.817 C 209.635 448.449,208.330 449.264,208.000 449.629 C 207.669 449.994,206.814 450.421,206.100 450.578 C 205.385 450.735,204.800 451.029,204.800 451.232 C 204.800 451.434,204.530 451.600,204.200 451.600 C 203.870 451.600,203.600 451.745,203.600 451.923 C 203.600 452.318,200.773 453.600,199.903 453.600 C 199.101 453.600,195.200 451.588,195.200 451.175 C 195.200 451.004,194.615 450.737,193.900 450.582 C 193.185 450.426,192.510 450.173,192.400 450.019 C 191.928 449.358,188.954 447.600,188.307 447.600 C 187.918 447.600,187.600 447.448,187.600 447.263 C 187.600 447.078,186.925 446.583,186.100 446.163 C 185.275 445.743,184.510 445.310,184.400 445.200 C 184.010 444.810,181.784 443.537,180.700 443.084 C 180.095 442.831,179.600 442.524,179.600 442.402 C 179.600 442.279,178.792 441.824,177.804 441.390 C 176.816 440.955,176.006 440.465,176.004 440.300 C 176.002 440.135,175.730 440.000,175.400 440.000 C 175.070 440.000,174.799 439.865,174.797 439.700 C 174.794 439.298,172.481 438.000,171.768 438.000 C 171.455 438.000,171.200 437.820,171.200 437.600 C 171.200 437.380,170.930 437.200,170.600 437.200 C 170.270 437.200,170.000 437.023,170.000 436.808 C 170.000 436.592,169.550 436.302,169.000 436.164 C 168.450 436.026,168.000 435.753,168.000 435.557 C 168.000 435.360,167.640 435.200,167.200 435.200 C 166.760 435.200,166.400 435.040,166.400 434.843 C 166.400 434.647,165.950 434.374,165.400 434.236 C 164.850 434.098,164.400 433.808,164.400 433.592 C 164.400 433.377,164.130 433.200,163.800 433.200 C 163.470 433.200,163.200 433.020,163.200 432.800 C 163.200 432.580,162.840 432.400,162.400 432.400 C 161.960 432.400,161.600 432.223,161.600 432.008 C 161.600 431.792,161.150 431.502,160.600 431.364 C 160.050 431.226,159.600 430.953,159.600 430.757 C 159.600 430.560,159.330 430.400,159.000 430.400 C 158.670 430.400,158.400 430.220,158.400 430.000 C 158.400 429.780,158.053 429.600,157.629 429.600 C 157.204 429.600,156.587 429.330,156.257 429.000 C 155.927 428.670,155.464 428.400,155.229 428.400 C 154.993 428.400,154.800 428.262,154.800 428.094 C 154.800 427.926,154.125 427.475,153.300 427.093 C 151.664 426.333,150.314 425.540,150.000 425.154 C 149.890 425.019,149.350 424.773,148.800 424.608 C 148.250 424.443,147.440 423.996,147.000 423.614 C 146.560 423.233,145.360 422.525,144.332 422.040 C 143.305 421.556,142.258 420.911,142.005 420.606 C 141.752 420.301,141.017 419.936,140.372 419.794 C 139.728 419.652,139.200 419.393,139.200 419.217 C 139.200 419.042,138.165 418.381,136.900 417.749 C 135.635 417.117,134.510 416.506,134.400 416.391 C 133.841 415.806,131.953 414.800,131.414 414.800 C 131.076 414.800,130.800 414.620,130.800 414.400 C 130.800 414.180,130.530 414.000,130.200 414.000 C 129.870 414.000,129.600 413.823,129.600 413.608 C 129.600 413.392,129.150 413.102,128.600 412.964 C 128.050 412.826,127.600 412.553,127.600 412.357 C 127.600 412.160,127.322 412.000,126.983 412.000 C 126.644 412.000,125.973 411.633,125.491 411.185 C 125.010 410.736,124.207 410.266,123.708 410.141 C 123.209 410.016,122.800 409.753,122.800 409.557 C 122.800 409.360,122.440 409.200,122.000 409.200 C 121.560 409.200,121.200 409.023,121.200 408.808 C 121.200 408.592,120.750 408.302,120.200 408.164 C 119.650 408.026,119.200 407.753,119.200 407.557 C 119.200 407.360,118.930 407.200,118.600 407.200 C 118.270 407.200,118.000 407.020,118.000 406.800 C 118.000 406.580,117.640 406.400,117.200 406.400 C 116.760 406.400,116.400 406.223,116.400 406.008 C 116.400 405.792,115.950 405.502,115.400 405.364 C 114.850 405.226,114.400 404.953,114.400 404.757 C 114.400 404.560,114.130 404.400,113.800 404.400 C 113.470 404.400,113.200 404.220,113.200 404.000 C 113.200 403.780,112.862 403.600,112.449 403.600 C 112.036 403.600,111.474 403.330,111.200 403.000 C 110.926 402.670,110.454 402.400,110.151 402.400 C 109.848 402.400,109.600 402.241,109.600 402.047 C 109.600 401.852,109.285 401.594,108.900 401.472 C 108.199 401.251,105.176 399.576,104.800 399.200 C 104.690 399.090,103.970 398.662,103.200 398.248 C 102.430 397.835,100.997 397.064,100.015 396.535 C 99.034 396.006,98.134 395.435,98.015 395.266 C 97.787 394.940,95.058 393.600,94.623 393.600 C 94.482 393.600,93.973 393.233,93.491 392.785 C 93.010 392.336,92.168 391.857,91.621 391.719 C 91.074 391.582,90.297 391.163,89.895 390.788 C 89.492 390.413,88.496 389.767,87.681 389.353 C 86.867 388.939,86.110 388.508,86.000 388.396 C 85.890 388.284,85.080 387.834,84.200 387.396 C 83.320 386.958,82.510 386.510,82.400 386.400 C 82.055 386.055,80.654 385.222,79.200 384.498 C 78.430 384.114,77.740 383.665,77.667 383.500 C 77.593 383.335,77.300 383.200,77.016 383.200 C 76.731 383.200,76.274 382.930,76.000 382.600 C 75.726 382.270,75.164 382.000,74.751 382.000 C 74.338 382.000,74.000 381.820,74.000 381.600 C 74.000 381.380,73.730 381.200,73.400 381.200 C 73.070 381.200,72.800 381.063,72.800 380.895 C 72.800 380.727,72.457 380.412,72.039 380.195 C 71.620 379.978,70.585 379.447,69.739 379.015 C 68.892 378.584,67.962 377.999,67.671 377.715 C 67.381 377.432,66.886 377.200,66.571 377.200 C 66.257 377.200,66.000 377.057,66.000 376.882 C 66.000 376.707,65.190 376.230,64.200 375.822 C 63.210 375.413,62.400 374.927,62.400 374.740 C 62.400 374.553,62.130 374.400,61.800 374.400 C 61.470 374.400,61.200 374.257,61.200 374.082 C 61.200 373.907,60.390 373.430,59.400 373.022 C 58.410 372.613,57.600 372.127,57.600 371.940 C 57.600 371.753,57.330 371.600,57.000 371.600 C 56.670 371.600,56.400 371.434,56.400 371.232 C 56.400 371.029,55.884 370.750,55.254 370.612 C 54.624 370.473,53.769 370.050,53.354 369.672 C 52.939 369.293,51.565 368.447,50.301 367.792 C 49.036 367.136,48.001 366.479,48.001 366.332 C 48.000 366.184,47.460 365.945,46.800 365.800 C 46.140 365.655,45.600 365.401,45.600 365.235 C 45.600 365.069,44.566 364.408,43.301 363.767 C 42.037 363.125,40.775 362.386,40.497 362.124 C 40.219 361.863,39.363 361.422,38.596 361.144 C 37.828 360.866,37.200 360.495,37.200 360.320 C 37.200 360.144,36.930 360.000,36.600 360.000 C 36.270 360.000,35.999 359.865,35.997 359.700 C 35.995 359.355,33.726 358.000,33.151 358.000 C 32.939 358.000,32.373 357.633,31.891 357.185 C 31.410 356.736,30.607 356.266,30.108 356.141 C 29.609 356.016,29.200 355.753,29.200 355.557 C 29.200 355.360,28.840 355.200,28.400 355.200 C 27.960 355.200,27.600 355.023,27.600 354.808 C 27.600 354.592,27.150 354.302,26.600 354.164 C 26.050 354.026,25.600 353.753,25.600 353.557 C 25.600 353.360,25.330 353.200,25.000 353.200 C 24.670 353.200,24.400 353.020,24.400 352.800 C 24.400 352.580,24.040 352.400,23.600 352.400 C 23.160 352.400,22.800 352.223,22.800 352.008 C 22.800 351.792,22.350 351.502,21.800 351.364 C 21.250 351.226,20.800 350.953,20.800 350.757 C 20.800 350.560,20.530 350.400,20.200 350.400 C 19.870 350.400,19.600 350.220,19.600 350.000 C 19.600 349.780,19.253 349.600,18.829 349.600 C 18.404 349.600,17.787 349.330,17.457 349.000 C 17.127 348.670,16.664 348.400,16.429 348.400 C 16.193 348.400,16.000 348.241,16.000 348.047 C 16.000 347.852,15.685 347.594,15.300 347.472 C 14.599 347.251,11.576 345.576,11.200 345.200 C 11.001 345.002,9.219 344.006,7.100 342.910 L 6.000 342.341 6.000 230.604 L 6.000 118.867 7.200 118.336 C 7.860 118.044,8.400 117.669,8.400 117.502 C 8.400 117.336,8.593 117.200,8.829 117.200 C 9.064 117.200,9.527 116.930,9.857 116.600 C 10.187 116.270,10.804 116.000,11.229 116.000 C 11.653 116.000,12.000 115.820,12.000 115.600 C 12.000 115.380,12.270 115.200,12.600 115.200 C 12.930 115.200,13.200 115.040,13.200 114.843 C 13.200 114.647,13.650 114.374,14.200 114.236 C 14.750 114.098,15.200 113.808,15.200 113.592 C 15.200 113.377,15.560 113.200,16.000 113.200 C 16.440 113.200,16.800 113.020,16.800 112.800 C 16.800 112.580,17.070 112.400,17.400 112.400 C 17.730 112.400,18.000 112.223,18.000 112.008 C 18.000 111.792,18.450 111.502,19.000 111.364 C 19.550 111.226,20.000 110.953,20.000 110.757 C 20.000 110.560,20.360 110.400,20.800 110.400 C 21.240 110.400,21.600 110.240,21.600 110.043 C 21.600 109.847,22.050 109.574,22.600 109.436 C 23.150 109.298,23.600 109.008,23.600 108.792 C 23.600 108.577,23.870 108.400,24.200 108.400 C 24.530 108.400,24.800 108.220,24.800 108.000 C 24.800 107.780,25.160 107.600,25.600 107.600 C 26.040 107.600,26.400 107.440,26.400 107.243 C 26.400 107.047,26.850 106.774,27.400 106.636 C 27.950 106.498,28.400 106.208,28.400 105.992 C 28.400 105.777,28.670 105.600,29.000 105.600 C 29.330 105.600,29.600 105.420,29.600 105.200 C 29.600 104.980,29.938 104.800,30.351 104.800 C 30.764 104.800,31.326 104.530,31.600 104.200 C 31.874 103.870,32.346 103.600,32.649 103.600 C 32.952 103.600,33.200 103.456,33.200 103.280 C 33.200 103.105,33.842 102.729,34.626 102.445 C 35.410 102.161,36.150 101.675,36.269 101.365 C 36.388 101.054,36.826 100.800,37.243 100.800 C 37.659 100.800,38.000 100.640,38.000 100.443 C 38.000 100.247,38.409 99.984,38.908 99.859 C 39.407 99.734,40.210 99.264,40.691 98.815 C 41.173 98.367,41.771 98.000,42.022 98.000 C 42.658 98.000,44.880 96.729,45.600 95.954 C 45.931 95.598,46.786 95.179,47.500 95.022 C 48.215 94.865,48.800 94.592,48.800 94.416 C 48.800 94.240,49.835 93.581,51.100 92.953 C 52.365 92.325,53.691 91.494,54.047 91.106 C 54.403 90.718,54.826 90.400,54.986 90.400 C 55.499 90.400,58.180 89.050,58.729 88.515 C 59.019 88.232,59.514 88.000,59.829 88.000 C 60.143 88.000,60.400 87.860,60.400 87.690 C 60.400 87.519,61.208 87.024,62.196 86.590 C 63.184 86.155,63.994 85.665,63.996 85.500 C 63.998 85.335,64.270 85.200,64.600 85.200 C 64.930 85.200,65.200 85.060,65.200 84.890 C 65.200 84.719,66.008 84.224,66.996 83.790 C 67.984 83.355,68.794 82.865,68.796 82.700 C 68.798 82.535,69.070 82.400,69.400 82.400 C 69.730 82.400,70.002 82.265,70.004 82.100 C 70.006 81.935,70.816 81.445,71.804 81.010 C 72.792 80.576,73.600 80.081,73.600 79.910 C 73.600 79.740,73.870 79.600,74.200 79.600 C 74.530 79.600,74.800 79.440,74.800 79.243 C 74.800 79.047,75.250 78.774,75.800 78.636 C 76.350 78.498,76.800 78.208,76.800 77.992 C 76.800 77.777,77.160 77.600,77.600 77.600 C 78.040 77.600,78.400 77.440,78.400 77.243 C 78.400 77.047,78.809 76.784,79.308 76.659 C 79.807 76.534,80.610 76.064,81.091 75.615 C 81.573 75.167,82.244 74.800,82.583 74.800 C 82.922 74.800,83.200 74.640,83.200 74.443 C 83.200 74.247,83.609 73.984,84.108 73.859 C 84.607 73.734,85.410 73.264,85.891 72.815 C 86.373 72.367,87.002 72.000,87.290 72.000 C 87.789 72.000,90.778 70.159,91.200 69.592 C 91.310 69.444,91.854 69.212,92.408 69.077 C 92.962 68.942,93.786 68.486,94.239 68.064 C 94.691 67.643,95.498 67.160,96.031 66.992 C 96.564 66.824,97.627 66.262,98.393 65.744 C 99.159 65.225,100.014 64.800,100.293 64.800 C 100.572 64.800,100.800 64.620,100.800 64.400 C 100.800 64.180,101.070 64.000,101.400 64.000 C 101.730 64.000,102.000 63.860,102.000 63.690 C 102.000 63.519,102.808 63.024,103.796 62.590 C 104.784 62.155,105.594 61.665,105.596 61.500 C 105.598 61.335,105.870 61.200,106.200 61.200 C 106.530 61.200,106.800 61.047,106.800 60.860 C 106.800 60.673,107.610 60.187,108.600 59.778 C 109.590 59.370,110.400 58.893,110.400 58.718 C 110.400 58.543,110.593 58.400,110.829 58.400 C 111.064 58.400,111.527 58.130,111.857 57.800 C 112.187 57.470,112.804 57.200,113.229 57.200 C 113.653 57.200,114.000 57.020,114.000 56.800 C 114.000 56.580,114.270 56.400,114.600 56.400 C 114.930 56.400,115.200 56.220,115.200 56.000 C 115.200 55.780,115.457 55.600,115.771 55.600 C 116.086 55.600,116.581 55.364,116.871 55.075 C 117.162 54.787,117.985 54.293,118.700 53.978 C 119.415 53.663,120.000 53.269,120.000 53.102 C 120.000 52.936,120.257 52.800,120.571 52.800 C 120.886 52.800,121.381 52.563,121.671 52.272 C 121.962 51.982,122.965 51.408,123.900 50.995 C 124.835 50.583,125.600 50.101,125.600 49.923 C 125.600 49.745,125.870 49.600,126.200 49.600 C 126.530 49.600,126.800 49.457,126.800 49.282 C 126.800 49.107,127.610 48.630,128.600 48.222 C 129.590 47.813,130.400 47.327,130.400 47.140 C 130.400 46.953,130.670 46.800,131.000 46.800 C 131.330 46.800,131.600 46.656,131.600 46.480 C 131.600 46.305,132.228 45.934,132.996 45.656 C 133.763 45.378,134.619 44.937,134.897 44.676 C 135.175 44.414,136.437 43.675,137.701 43.033 C 138.966 42.392,140.000 41.731,140.000 41.565 C 140.000 41.399,140.540 41.145,141.200 41.000 C 141.860 40.855,142.400 40.600,142.400 40.434 C 142.400 40.267,143.435 39.614,144.700 38.983 C 145.965 38.351,147.270 37.536,147.600 37.171 C 147.931 36.806,148.786 36.379,149.500 36.222 C 150.215 36.065,150.800 35.771,150.800 35.568 C 150.800 35.366,151.070 35.200,151.400 35.200 C 151.730 35.200,152.000 35.023,152.000 34.808 C 152.000 34.592,152.450 34.302,153.000 34.164 C 153.550 34.026,154.000 33.753,154.000 33.557 C 154.000 33.360,154.360 33.200,154.800 33.200 C 155.240 33.200,155.600 33.020,155.600 32.800 C 155.600 32.580,155.870 32.400,156.200 32.400 C 156.530 32.400,156.800 32.223,156.800 32.008 C 156.800 31.792,157.250 31.502,157.800 31.364 C 158.350 31.226,158.800 30.953,158.800 30.757 C 158.800 30.560,159.160 30.400,159.600 30.400 C 160.040 30.400,160.400 30.223,160.400 30.008 C 160.400 29.792,160.850 29.502,161.400 29.364 C 161.950 29.226,162.400 28.953,162.400 28.757 C 162.400 28.560,162.670 28.400,163.000 28.400 C 163.330 28.400,163.600 28.220,163.600 28.000 C 163.600 27.780,163.938 27.600,164.351 27.600 C 164.764 27.600,165.326 27.330,165.600 27.000 C 165.874 26.670,166.346 26.400,166.649 26.400 C 166.952 26.400,167.200 26.220,167.200 26.000 C 167.200 25.780,167.470 25.600,167.800 25.600 C 168.130 25.600,168.400 25.440,168.400 25.243 C 168.400 25.047,168.850 24.774,169.400 24.636 C 169.950 24.498,170.400 24.208,170.400 23.992 C 170.400 23.777,170.760 23.600,171.200 23.600 C 171.640 23.600,172.000 23.440,172.000 23.243 C 172.000 23.047,172.409 22.784,172.908 22.659 C 173.407 22.534,174.210 22.064,174.691 21.615 C 175.173 21.167,175.844 20.800,176.183 20.800 C 176.522 20.800,176.800 20.640,176.800 20.443 C 176.800 20.247,177.209 19.984,177.708 19.859 C 178.207 19.734,178.978 19.293,179.421 18.881 C 179.864 18.468,180.674 18.018,181.221 17.881 C 181.768 17.743,182.610 17.264,183.091 16.815 C 183.573 16.367,184.154 16.000,184.383 16.000 C 184.612 16.000,184.800 15.843,184.800 15.650 C 184.800 15.457,185.295 15.200,185.900 15.077 C 186.505 14.955,187.374 14.505,187.831 14.076 C 188.288 13.648,189.098 13.162,189.631 12.996 C 190.564 12.706,192.787 11.322,193.200 10.773 C 193.310 10.627,193.850 10.368,194.400 10.197 C 194.950 10.027,196.027 9.462,196.793 8.944 C 197.559 8.425,198.414 8.000,198.693 8.000 C 198.972 8.000,199.200 7.820,199.200 7.600 C 199.200 7.380,199.560 7.200,200.000 7.200 C 200.440 7.200,200.800 7.380,200.800 7.600 M143.769 131.325 C 143.532 131.596,143.002 132.579,142.592 133.509 C 142.182 134.439,141.701 135.200,141.523 135.200 C 141.345 135.200,141.200 135.470,141.200 135.800 C 141.200 136.130,141.034 136.400,140.832 136.400 C 140.629 136.400,140.350 136.916,140.212 137.546 C 140.073 138.176,139.654 139.034,139.280 139.452 C 138.906 139.870,138.075 141.244,137.433 142.506 C 136.792 143.768,136.131 144.800,135.965 144.800 C 135.799 144.800,135.545 145.340,135.400 146.000 C 135.255 146.660,134.992 147.200,134.815 147.200 C 134.638 147.200,134.394 147.515,134.272 147.900 C 134.048 148.610,132.370 151.633,131.996 152.000 C 131.884 152.110,131.434 152.920,130.996 153.800 C 130.558 154.680,130.065 155.460,129.900 155.533 C 129.735 155.607,129.600 155.922,129.600 156.233 C 129.600 156.545,129.455 156.800,129.277 156.800 C 129.099 156.800,128.620 157.565,128.213 158.500 C 127.805 159.435,127.365 160.290,127.236 160.400 C 126.900 160.684,126.134 161.972,125.332 163.600 C 124.952 164.370,124.542 165.090,124.421 165.200 C 124.191 165.409,122.993 167.546,122.237 169.097 C 121.997 169.590,121.665 169.995,121.500 169.997 C 121.335 169.999,121.200 170.228,121.200 170.507 C 121.200 170.786,120.759 171.663,120.221 172.456 C 119.682 173.248,119.122 174.370,118.977 174.949 C 118.832 175.527,118.575 176.000,118.406 176.000 C 118.236 176.000,117.581 177.027,116.949 178.283 C 116.317 179.539,115.473 180.934,115.073 181.383 C 114.672 181.832,114.245 182.695,114.123 183.300 C 114.000 183.905,113.743 184.400,113.550 184.400 C 113.358 184.400,113.200 184.670,113.200 185.000 C 113.200 185.330,113.023 185.600,112.808 185.600 C 112.592 185.600,112.302 186.050,112.164 186.600 C 112.026 187.150,111.753 187.600,111.557 187.600 C 111.360 187.600,111.200 187.960,111.200 188.400 C 111.200 188.840,111.020 189.200,110.800 189.200 C 110.580 189.200,110.400 189.470,110.400 189.800 C 110.400 190.130,110.223 190.400,110.008 190.400 C 109.792 190.400,109.502 190.850,109.364 191.400 C 109.226 191.950,108.953 192.400,108.757 192.400 C 108.560 192.400,108.400 192.760,108.400 193.200 C 108.400 193.640,108.240 194.000,108.043 194.000 C 107.847 194.000,107.574 194.450,107.436 195.000 C 107.298 195.550,107.008 196.000,106.792 196.000 C 106.577 196.000,106.400 196.270,106.400 196.600 C 106.400 196.930,106.220 197.200,106.000 197.200 C 105.780 197.200,105.600 197.560,105.600 198.000 C 105.600 198.440,105.440 198.800,105.243 198.800 C 105.047 198.800,104.774 199.250,104.636 199.800 C 104.498 200.350,104.208 200.800,103.992 200.800 C 103.777 200.800,103.600 201.070,103.600 201.400 C 103.600 201.730,103.442 202.000,103.250 202.000 C 103.058 202.000,102.800 202.495,102.677 203.100 C 102.555 203.705,102.128 204.560,101.727 205.000 C 101.327 205.440,100.535 206.700,99.967 207.800 C 98.503 210.633,97.433 212.566,97.200 212.800 C 97.020 212.980,96.233 214.359,95.029 216.600 C 94.793 217.040,94.508 217.490,94.396 217.600 C 94.284 217.710,93.834 218.520,93.396 219.400 C 92.958 220.280,92.465 221.060,92.300 221.133 C 92.135 221.207,92.000 221.522,92.000 221.833 C 92.000 222.145,91.834 222.400,91.632 222.400 C 91.429 222.400,91.145 222.940,91.000 223.600 C 90.855 224.260,90.571 224.800,90.368 224.800 C 90.166 224.800,90.000 225.070,90.000 225.400 C 90.000 225.730,89.860 226.000,89.690 226.000 C 89.519 226.000,89.024 226.808,88.590 227.796 C 88.155 228.784,87.620 229.597,87.400 229.602 C 87.180 229.608,87.270 229.787,87.600 230.000 C 87.980 230.246,108.756 230.390,144.257 230.394 L 200.313 230.400 203.357 224.987 C 205.030 222.010,206.400 219.400,206.400 219.187 C 206.400 218.974,206.559 218.800,206.753 218.800 C 206.948 218.800,207.208 218.485,207.331 218.100 C 207.455 217.715,208.126 216.410,208.822 215.200 C 210.935 211.527,212.080 209.496,213.219 207.400 C 213.816 206.300,215.497 203.365,216.953 200.877 C 218.409 198.389,219.600 196.275,219.600 196.178 C 219.600 196.027,221.662 192.310,225.913 184.800 C 226.473 183.810,227.234 182.460,227.604 181.800 C 228.181 180.771,234.102 170.270,236.514 166.000 C 236.949 165.230,238.606 162.260,240.197 159.400 C 243.597 153.286,245.037 150.716,246.132 148.800 C 246.573 148.030,248.527 144.555,250.475 141.079 C 252.423 137.602,254.431 134.092,254.937 133.279 C 255.442 132.465,255.989 131.575,256.152 131.300 C 256.583 130.570,144.406 130.595,143.769 131.325 M266.400 149.047 C 266.400 149.267,266.664 149.796,266.987 150.224 C 267.310 150.651,267.575 150.820,267.575 150.600 C 267.575 150.380,267.310 149.851,266.987 149.424 C 266.664 148.996,266.400 148.827,266.400 149.047 M294.880 261.680 C 294.316 262.244,294.253 262.800,294.753 262.800 C 294.948 262.800,295.201 262.440,295.316 262.000 C 295.560 261.066,295.522 261.038,294.880 261.680 M172.700 330.300 C 187.935 330.358,212.865 330.358,228.100 330.300 C 243.335 330.242,230.870 330.194,200.400 330.194 C 169.930 330.194,157.465 330.242,172.700 330.300 " stroke="none" fill="#fcfcfc" fill-rule="evenodd"></path><path id="path1" d="M256.174 131.468 C 256.302 131.725,256.181 132.178,255.904 132.474 C 255.627 132.770,255.048 133.729,254.617 134.606 C 254.186 135.483,253.532 136.650,253.164 137.200 C 252.796 137.750,251.868 139.370,251.102 140.800 C 248.465 145.725,248.199 146.200,247.969 146.400 C 247.841 146.510,247.470 147.140,247.142 147.800 C 246.398 149.301,245.463 150.937,245.200 151.200 C 245.089 151.310,244.593 152.210,244.096 153.200 C 243.599 154.190,242.464 156.260,241.575 157.800 C 240.686 159.340,239.856 160.915,239.732 161.300 C 239.608 161.685,239.369 162.000,239.200 162.000 C 239.031 162.000,238.792 162.315,238.669 162.700 C 238.546 163.085,237.802 164.480,237.016 165.800 C 236.229 167.120,235.368 168.650,235.101 169.200 C 234.834 169.750,234.512 170.290,234.385 170.400 C 234.258 170.510,233.912 171.200,233.615 171.934 C 233.318 172.668,232.878 173.478,232.637 173.734 C 232.397 173.990,231.891 174.830,231.514 175.600 C 231.137 176.370,230.311 177.900,229.679 179.000 C 226.325 184.838,225.200 186.907,225.200 187.236 C 225.200 187.436,225.041 187.600,224.847 187.600 C 224.652 187.600,224.390 187.915,224.263 188.300 C 224.136 188.685,223.618 189.720,223.112 190.600 C 222.605 191.480,221.308 193.820,220.230 195.800 C 219.151 197.780,218.163 199.490,218.034 199.600 C 217.905 199.710,217.491 200.430,217.114 201.200 C 216.737 201.970,215.862 203.590,215.170 204.800 C 214.479 206.010,213.509 207.720,213.016 208.600 C 212.523 209.480,210.901 212.360,209.413 215.000 C 207.924 217.640,206.255 220.610,205.705 221.600 C 205.154 222.590,204.142 224.390,203.456 225.600 C 202.770 226.810,201.916 228.340,201.557 229.000 L 200.905 230.200 185.153 230.405 L 169.400 230.609 184.953 230.805 L 200.505 231.000 201.153 232.200 C 201.510 232.860,202.414 234.480,203.162 235.800 C 204.727 238.560,205.390 239.740,207.095 242.800 C 207.770 244.010,208.969 246.142,209.761 247.538 C 210.552 248.935,211.200 250.167,211.200 250.277 C 211.200 250.387,211.534 250.954,211.943 251.538 C 212.678 252.589,213.570 254.155,216.306 259.200 C 217.082 260.630,217.850 261.980,218.014 262.200 C 218.273 262.549,223.336 271.536,226.914 278.000 C 227.584 279.210,229.299 282.270,230.725 284.800 C 232.151 287.330,234.170 290.930,235.212 292.800 C 236.253 294.670,238.207 298.157,239.553 300.549 C 240.899 302.941,242.000 304.963,242.000 305.041 C 242.000 305.120,242.630 306.169,243.400 307.373 C 244.170 308.577,244.800 309.640,244.800 309.735 C 244.800 309.887,248.419 316.431,250.698 320.400 C 253.541 325.351,254.400 326.900,254.400 327.077 C 254.400 327.187,254.755 327.775,255.188 328.383 C 255.622 328.992,255.847 329.630,255.688 329.800 C 255.530 329.970,255.670 330.025,256.000 329.921 C 256.330 329.818,256.600 329.478,256.600 329.167 C 256.600 328.855,256.827 328.455,257.104 328.278 C 257.381 328.101,257.883 327.381,258.219 326.678 C 258.556 325.975,259.166 324.770,259.576 324.000 C 259.986 323.230,260.252 322.528,260.167 322.440 C 260.082 322.351,260.325 322.051,260.706 321.772 C 261.088 321.493,261.424 321.115,261.454 320.932 C 261.618 319.920,262.139 318.800,262.447 318.800 C 262.641 318.800,262.800 318.530,262.800 318.200 C 262.800 317.870,262.991 317.600,263.224 317.600 C 263.457 317.600,263.550 317.443,263.432 317.252 C 263.313 317.060,263.573 316.492,264.008 315.990 C 264.444 315.488,264.800 314.918,264.800 314.722 C 264.800 314.527,265.164 313.975,265.610 313.497 C 266.055 313.019,266.342 312.425,266.246 312.176 C 266.151 311.928,266.400 311.488,266.800 311.200 C 267.200 310.912,267.435 310.435,267.322 310.141 C 267.209 309.847,267.406 309.496,267.758 309.361 C 268.111 309.225,268.400 308.768,268.400 308.345 C 268.400 307.921,268.670 307.471,269.000 307.345 C 269.330 307.218,269.600 306.774,269.600 306.357 C 269.600 305.941,269.780 305.600,270.000 305.600 C 270.220 305.600,270.400 305.330,270.400 305.000 C 270.400 304.670,270.560 304.400,270.755 304.400 C 270.951 304.400,271.235 303.737,271.387 302.928 C 271.592 301.838,271.758 301.604,272.026 302.028 C 272.296 302.454,272.389 302.332,272.394 301.549 C 272.397 300.971,272.670 300.274,273.000 300.000 C 273.330 299.726,273.600 299.209,273.601 298.851 C 273.601 298.493,274.141 297.570,274.800 296.800 C 275.459 296.030,276.021 295.265,276.049 295.100 C 276.077 294.935,276.123 294.613,276.150 294.385 C 276.178 294.157,276.380 293.842,276.600 293.685 C 277.107 293.324,277.688 292.361,279.065 289.600 C 279.669 288.390,280.321 287.290,280.515 287.155 C 280.709 287.021,280.851 286.751,280.831 286.555 C 280.810 286.360,281.020 285.917,281.297 285.572 C 281.574 285.226,281.855 284.686,281.922 284.372 C 281.989 284.057,282.304 283.600,282.622 283.356 C 282.940 283.112,283.200 282.707,283.200 282.456 C 283.200 282.205,283.359 282.000,283.553 282.000 C 283.881 282.000,284.320 280.934,284.236 280.342 C 284.216 280.200,284.543 279.705,284.962 279.242 C 285.381 278.779,285.599 278.400,285.446 278.400 C 285.294 278.400,285.536 278.006,285.984 277.525 C 286.433 277.043,286.800 276.312,286.800 275.901 C 286.800 275.489,286.971 275.258,287.180 275.388 C 287.389 275.517,287.678 274.989,287.824 274.215 C 287.969 273.440,288.248 272.906,288.444 273.027 C 288.640 273.148,288.800 273.008,288.800 272.716 C 288.800 272.425,289.250 271.523,289.800 270.714 C 290.350 269.905,290.800 268.963,290.800 268.621 C 290.800 268.280,290.935 267.999,291.100 267.997 C 291.581 267.993,292.799 265.616,292.806 264.668 C 292.811 263.961,292.884 263.911,293.200 264.400 C 293.543 264.931,293.588 264.930,293.594 264.391 C 293.597 264.057,294.583 262.174,295.784 260.208 C 296.985 258.243,297.888 256.555,297.791 256.458 C 297.694 256.361,297.946 255.993,298.350 255.641 C 299.082 255.003,299.839 253.298,299.669 252.670 C 299.620 252.489,299.744 252.442,299.944 252.565 C 300.271 252.768,301.290 250.898,301.278 250.117 C 301.268 249.482,302.556 247.649,302.873 247.845 C 303.053 247.956,303.200 247.767,303.200 247.424 C 303.200 247.081,303.360 246.800,303.557 246.800 C 303.753 246.800,304.053 246.305,304.224 245.700 C 304.817 243.603,305.221 242.766,305.546 242.967 C 305.690 243.056,306.162 242.335,306.594 241.364 C 307.026 240.394,307.530 239.600,307.713 239.600 C 307.897 239.600,307.949 239.440,307.828 239.245 C 307.707 239.050,307.875 238.670,308.200 238.400 C 308.525 238.130,308.705 237.770,308.600 237.600 C 308.495 237.430,308.677 237.068,309.004 236.796 C 309.332 236.524,309.600 236.048,309.600 235.738 C 309.600 235.429,309.869 235.072,310.198 234.946 C 310.526 234.819,310.705 234.570,310.594 234.390 C 310.483 234.211,310.634 233.823,310.928 233.529 C 311.223 233.234,311.390 232.769,311.299 232.496 C 311.208 232.223,311.328 232.000,311.567 232.000 C 311.805 232.000,312.000 231.730,312.000 231.400 C 312.000 231.070,312.171 230.800,312.380 230.800 C 312.852 230.800,311.397 227.466,310.845 227.282 C 310.625 227.208,310.555 226.860,310.690 226.509 C 310.854 226.084,310.779 225.966,310.468 226.158 C 310.211 226.317,310.000 226.257,310.000 226.024 C 310.000 225.179,309.935 224.990,309.437 224.400 C 309.159 224.070,308.700 223.215,308.417 222.500 C 308.134 221.785,307.745 221.200,307.551 221.200 C 307.358 221.200,307.200 220.930,307.200 220.600 C 307.200 220.270,307.020 220.000,306.800 220.000 C 306.580 220.000,306.400 219.752,306.400 219.449 C 306.400 219.146,306.132 218.676,305.804 218.404 C 305.477 218.132,305.298 217.764,305.408 217.587 C 305.518 217.410,305.378 217.025,305.098 216.732 C 304.153 215.743,303.090 213.886,303.659 214.215 C 303.956 214.388,303.795 214.083,303.300 213.539 C 302.805 212.994,302.400 212.335,302.400 212.074 C 302.400 211.813,302.209 211.600,301.976 211.600 C 301.743 211.600,301.647 211.447,301.763 211.261 C 301.878 211.074,301.612 210.534,301.171 210.061 C 300.730 209.587,300.494 209.200,300.646 209.200 C 300.799 209.200,300.649 208.885,300.313 208.500 C 299.977 208.115,299.389 207.127,299.007 206.304 C 298.615 205.458,298.128 204.921,297.888 205.069 C 297.623 205.233,297.560 205.081,297.719 204.666 C 297.860 204.300,297.801 204.000,297.587 204.000 C 297.374 204.000,297.200 203.640,297.200 203.200 C 297.200 202.760,297.020 202.400,296.800 202.400 C 296.580 202.400,296.400 202.059,296.400 201.643 C 296.400 201.226,296.119 200.778,295.775 200.646 C 295.431 200.514,295.261 200.224,295.398 200.003 C 295.535 199.781,295.457 199.600,295.224 199.600 C 294.991 199.600,294.819 199.465,294.843 199.300 C 294.942 198.615,294.282 197.226,293.955 197.428 C 293.760 197.549,293.600 197.277,293.600 196.824 C 293.600 196.371,293.420 196.000,293.200 196.000 C 292.980 196.000,292.800 195.730,292.800 195.400 C 292.800 195.070,292.474 194.474,292.075 194.075 C 291.676 193.676,291.421 193.136,291.508 192.875 C 291.595 192.614,291.494 192.400,291.284 192.400 C 291.073 192.400,290.140 190.915,289.209 189.100 C 288.278 187.285,287.130 185.380,286.658 184.868 C 286.186 184.355,285.843 183.815,285.895 183.668 C 286.065 183.189,285.551 181.983,285.254 182.166 C 285.096 182.264,284.940 182.002,284.909 181.582 C 284.877 181.163,284.399 180.333,283.847 179.737 C 283.295 179.142,282.934 178.507,283.045 178.327 C 283.156 178.147,283.076 178.000,282.867 178.000 C 282.658 178.000,282.370 177.535,282.227 176.966 C 282.084 176.397,281.621 175.560,281.198 175.105 C 280.774 174.651,280.522 174.126,280.637 173.939 C 280.753 173.753,280.657 173.600,280.424 173.600 C 280.191 173.600,280.000 173.407,280.000 173.172 C 280.000 172.937,279.467 171.970,278.816 171.023 C 278.164 170.076,277.744 169.189,277.882 169.051 C 278.020 168.913,277.945 168.800,277.715 168.800 C 277.485 168.800,277.059 168.215,276.767 167.500 C 276.476 166.785,275.959 165.962,275.619 165.670 C 275.278 165.379,275.238 165.263,275.530 165.412 C 275.968 165.637,275.969 165.539,275.533 164.842 C 275.244 164.379,274.885 164.000,274.736 164.000 C 274.586 164.000,274.342 163.448,274.194 162.773 C 274.046 162.098,273.673 161.449,273.365 161.331 C 273.057 161.213,272.904 160.955,273.026 160.758 C 273.148 160.561,273.057 160.400,272.824 160.400 C 272.591 160.400,272.400 160.189,272.400 159.931 C 272.400 159.674,272.160 159.179,271.866 158.831 C 271.572 158.484,271.087 157.570,270.788 156.800 C 270.489 156.030,269.930 155.119,269.547 154.775 C 269.164 154.431,268.794 153.895,268.725 153.585 C 268.656 153.274,267.842 151.772,266.916 150.246 C 265.990 148.720,265.325 147.321,265.440 147.136 C 265.554 146.951,265.457 146.800,265.224 146.800 C 264.991 146.800,264.800 146.524,264.800 146.187 C 264.800 145.851,264.530 145.471,264.200 145.345 C 263.870 145.218,263.600 144.889,263.600 144.613 C 263.600 144.337,263.150 143.449,262.600 142.638 C 262.050 141.828,261.600 140.902,261.600 140.582 C 261.600 140.262,261.420 140.000,261.200 140.000 C 260.980 140.000,260.800 139.629,260.800 139.176 C 260.800 138.723,260.620 138.464,260.400 138.600 C 260.180 138.736,259.986 138.702,259.969 138.524 C 259.853 137.288,259.562 136.561,259.029 136.171 C 258.690 135.924,258.530 135.604,258.673 135.460 C 258.816 135.317,258.723 135.200,258.467 135.200 C 258.210 135.200,258.000 134.840,258.000 134.400 C 258.000 133.960,257.820 133.600,257.600 133.600 C 257.380 133.600,257.200 133.364,257.200 133.076 C 257.200 132.789,256.917 132.204,256.570 131.776 C 256.224 131.349,256.046 131.210,256.174 131.468 M87.303 230.910 C 87.413 231.237,145.607 231.327,145.933 231.000 C 146.038 230.896,132.865 230.763,116.661 230.705 C 100.458 230.647,87.246 230.740,87.303 230.910 M166.500 230.676 C 166.885 230.776,167.515 230.776,167.900 230.676 C 168.285 230.575,167.970 230.493,167.200 230.493 C 166.430 230.493,166.115 230.575,166.500 230.676 " stroke="none" fill="#ececec" fill-rule="evenodd"></path><path id="path2" d="M145.931 231.003 C 145.828 231.106,132.572 231.197,116.475 231.205 C 87.432 231.220,87.210 231.226,87.699 232.010 C 87.970 232.445,88.323 232.800,88.484 232.800 C 88.644 232.800,88.671 233.070,88.545 233.400 C 88.418 233.730,88.470 234.000,88.660 234.000 C 88.849 234.000,89.259 234.585,89.570 235.300 C 89.881 236.015,90.244 236.690,90.377 236.800 C 90.938 237.265,92.000 239.219,92.000 239.786 C 92.000 240.124,92.137 240.400,92.305 240.400 C 92.611 240.400,93.333 241.585,93.829 242.900 C 93.974 243.285,94.252 243.600,94.447 243.600 C 94.641 243.600,94.800 243.941,94.800 244.357 C 94.800 244.774,95.081 245.222,95.425 245.354 C 95.769 245.486,95.948 245.761,95.822 245.965 C 95.696 246.169,95.864 246.607,96.196 246.939 C 96.528 247.271,96.800 247.736,96.800 247.971 C 96.800 248.207,96.980 248.400,97.200 248.400 C 97.420 248.400,97.600 248.741,97.600 249.157 C 97.600 249.574,97.881 250.022,98.225 250.154 C 98.569 250.286,98.748 250.561,98.622 250.765 C 98.496 250.969,98.626 251.375,98.911 251.668 C 99.197 251.960,99.743 252.830,100.126 253.600 C 100.959 255.276,101.710 256.526,102.046 256.800 C 102.181 256.910,102.432 257.450,102.604 258.000 C 102.775 258.550,103.520 259.898,104.258 260.995 C 104.996 262.092,105.600 263.202,105.600 263.461 C 105.600 263.721,105.755 263.993,105.945 264.067 C 106.307 264.207,108.698 268.349,109.889 270.900 C 110.274 271.725,110.726 272.400,110.894 272.400 C 111.062 272.400,111.200 272.681,111.200 273.024 C 111.200 273.367,111.371 273.542,111.580 273.412 C 111.789 273.283,112.076 273.800,112.219 274.561 C 112.362 275.322,112.713 276.034,112.999 276.144 C 113.285 276.254,113.732 276.987,113.991 277.772 C 114.250 278.557,114.628 279.200,114.831 279.200 C 115.034 279.200,115.200 279.560,115.200 280.000 C 115.200 280.440,115.380 280.800,115.600 280.800 C 115.820 280.800,116.000 281.070,116.000 281.400 C 116.000 281.730,116.180 282.000,116.400 282.000 C 116.620 282.000,116.800 282.257,116.800 282.571 C 116.800 282.886,117.026 283.381,117.301 283.671 C 117.577 283.962,118.318 285.235,118.949 286.500 C 119.579 287.765,120.254 288.800,120.448 288.800 C 120.641 288.800,120.800 289.070,120.800 289.400 C 120.800 289.730,120.991 290.000,121.224 290.000 C 121.457 290.000,121.536 290.180,121.400 290.400 C 121.264 290.620,121.354 290.800,121.600 290.800 C 121.846 290.800,121.945 290.965,121.820 291.168 C 121.695 291.370,121.864 291.807,122.196 292.139 C 122.528 292.471,122.800 292.936,122.800 293.171 C 122.800 293.407,122.966 293.600,123.168 293.600 C 123.371 293.600,123.665 294.185,123.822 294.900 C 123.979 295.614,124.431 296.480,124.827 296.823 C 125.223 297.167,125.668 297.932,125.817 298.524 C 125.965 299.116,126.247 299.600,126.443 299.600 C 126.640 299.600,126.800 299.836,126.800 300.125 C 126.800 300.413,127.138 301.012,127.551 301.455 C 127.964 301.899,128.438 302.698,128.605 303.231 C 128.772 303.764,129.019 304.290,129.154 304.400 C 129.494 304.677,130.249 305.938,131.068 307.600 C 131.448 308.370,131.859 309.090,131.983 309.200 C 132.107 309.310,132.566 310.120,133.004 311.000 C 133.442 311.880,133.935 312.660,134.100 312.733 C 134.265 312.807,134.400 313.122,134.400 313.433 C 134.400 313.745,134.535 314.002,134.700 314.004 C 134.865 314.006,135.355 314.816,135.790 315.804 C 136.224 316.792,136.674 317.602,136.790 317.605 C 136.905 317.607,137.344 318.327,137.764 319.205 C 138.185 320.082,138.680 320.800,138.864 320.800 C 139.049 320.800,139.200 321.160,139.200 321.600 C 139.200 322.040,139.360 322.400,139.557 322.400 C 139.753 322.400,140.016 322.809,140.141 323.308 C 140.266 323.807,140.736 324.610,141.185 325.091 C 141.633 325.573,142.000 326.158,142.000 326.391 C 142.000 326.625,142.452 327.532,143.005 328.408 L 144.010 330.000 199.738 330.000 C 230.389 330.000,255.581 329.885,255.722 329.745 C 255.862 329.605,255.622 328.992,255.188 328.383 C 254.755 327.775,254.400 327.187,254.400 327.077 C 254.400 326.900,253.541 325.351,250.698 320.400 C 248.419 316.431,244.800 309.887,244.800 309.735 C 244.800 309.640,244.170 308.577,243.400 307.373 C 242.630 306.169,242.000 305.120,242.000 305.041 C 242.000 304.963,240.899 302.941,239.553 300.549 C 238.207 298.157,236.253 294.670,235.212 292.800 C 234.170 290.930,232.151 287.330,230.725 284.800 C 229.299 282.270,227.584 279.210,226.914 278.000 C 223.336 271.536,218.273 262.549,218.014 262.200 C 217.850 261.980,217.082 260.630,216.306 259.200 C 213.570 254.155,212.678 252.589,211.943 251.538 C 211.534 250.954,211.200 250.387,211.200 250.277 C 211.200 250.167,210.552 248.935,209.761 247.538 C 208.969 246.142,207.770 244.010,207.095 242.800 C 205.390 239.740,204.727 238.560,203.162 235.800 C 202.414 234.480,201.510 232.860,201.153 232.200 L 200.505 231.000 173.312 230.908 C 158.355 230.857,146.034 230.900,145.931 231.003 " stroke="none" fill="#dcdcdc" fill-rule="evenodd"></path><path id="path3" d="M252.510 137.500 C 247.909 145.663,247.525 146.400,247.874 146.400 C 248.067 146.400,248.441 145.905,248.706 145.300 C 249.233 144.097,250.860 141.110,252.356 138.600 C 254.366 135.227,255.258 133.525,255.099 133.365 C 255.008 133.274,253.843 135.135,252.510 137.500 M247.067 147.100 C 245.678 149.409,244.857 151.200,245.187 151.200 C 245.414 151.200,245.600 151.003,245.600 150.762 C 245.600 150.521,245.931 149.846,246.335 149.262 C 247.101 148.154,247.693 146.800,247.411 146.800 C 247.321 146.800,247.166 146.935,247.067 147.100 M244.139 152.243 C 243.985 152.659,243.472 153.630,243.000 154.400 C 240.923 157.789,238.776 162.000,239.125 162.000 C 239.335 162.000,239.608 161.685,239.731 161.300 C 239.855 160.915,240.526 159.610,241.222 158.400 C 244.069 153.453,244.852 151.919,244.641 151.708 C 244.519 151.585,244.293 151.826,244.139 152.243 M238.148 163.118 C 236.800 165.299,235.259 168.463,235.965 167.600 C 236.414 167.050,236.786 166.461,236.791 166.292 C 236.796 166.123,237.263 165.251,237.829 164.354 C 238.395 163.458,238.793 162.660,238.714 162.580 C 238.635 162.501,238.380 162.743,238.148 163.118 M232.882 172.427 C 232.384 173.292,232.128 174.000,232.314 174.000 C 232.658 174.000,234.136 171.203,233.911 170.977 C 233.843 170.909,233.380 171.562,232.882 172.427 M230.460 176.693 C 229.298 178.824,228.141 180.887,225.803 185.000 C 221.199 193.101,219.582 196.115,219.749 196.283 C 219.858 196.391,220.398 195.607,220.949 194.540 C 221.501 193.473,222.420 191.790,222.992 190.800 C 223.565 189.810,224.136 188.685,224.263 188.300 C 224.390 187.915,224.652 187.600,224.847 187.600 C 225.041 187.600,225.200 187.436,225.200 187.236 C 225.200 187.036,225.917 185.606,226.793 184.060 C 227.670 182.513,228.770 180.562,229.239 179.724 C 229.708 178.886,230.543 177.427,231.094 176.482 C 231.646 175.537,232.012 174.679,231.908 174.575 C 231.804 174.471,231.153 175.424,230.460 176.693 M218.581 198.037 C 218.229 198.718,218.012 199.345,218.099 199.432 C 218.186 199.519,218.556 198.962,218.922 198.195 C 219.744 196.470,219.459 196.338,218.581 198.037 M215.393 203.521 C 214.297 205.429,213.255 207.352,213.077 207.795 C 212.554 209.101,213.392 208.000,214.595 205.800 C 215.197 204.700,216.141 203.027,216.693 202.082 C 217.246 201.137,217.627 200.294,217.541 200.208 C 217.456 200.122,216.489 201.613,215.393 203.521 M212.283 209.073 C 212.175 209.253,211.637 210.210,211.087 211.200 C 210.537 212.190,209.518 213.990,208.822 215.200 C 208.126 216.410,207.455 217.715,207.331 218.100 C 207.208 218.485,206.969 218.800,206.800 218.800 C 206.631 218.800,206.399 219.160,206.284 219.600 C 205.963 220.829,206.273 220.563,207.336 218.700 C 211.744 210.970,212.784 209.051,212.643 208.909 C 212.553 208.820,212.392 208.894,212.283 209.073 M203.190 225.280 C 200.178 230.721,200.109 230.869,201.156 229.600 C 201.611 229.050,201.986 228.491,201.991 228.357 C 201.996 228.224,202.908 226.537,204.018 224.608 C 205.127 222.680,205.958 221.025,205.864 220.931 C 205.770 220.836,204.567 222.793,203.190 225.280 M87.462 230.500 C 87.564 230.665,104.692 230.758,125.524 230.707 C 146.356 230.656,158.630 230.566,152.800 230.508 C 125.487 230.235,87.295 230.230,87.462 230.500 " stroke="none" fill="#f4f4f4" fill-rule="evenodd"></path><path id="path4" d="" stroke="none" fill="#fc100ec" fill-rule="evenodd"></path></g></svg>